<svg enable-background="new 0 0 501 498" viewBox="0 0 501 498" xmlns="http://www.w3.org/2000/svg"><path fill="#0d1419" d="M 453.2 129.9 c 5.2 10.5 10.4 21 15.6 31.5 c 0.6 1.2 0.8 2.5 1.4 4.3 c 0.3 0.9 0.5 1.1 0.9 1.2 c 0 0 0.1 0 0.2 0.2 c 0.3 0.5 0.5 0.7 0.8 0.8 c 0.6 2.1 1.3 4.2 1.8 6.7 c 0 0.7 0.1 1 0.2 1.3 c 0 0.4 0 0.8 0.1 1.8 c 0.4 0.8 0.6 1 0.9 1.2 c 0 0.4 0 0.8 0.1 1.8 c 0.4 0.7 0.7 0.9 1 1.1 c 2.9 14.7 6.1 29.4 8.7 44.2 c 1.2 7 1.9 14.1 2 21.2 c 0.1 8.1 0 16.3 -1.1 24.3 c -1.8 13.2 -3.7 26.5 -7 39.3 c -6.2 23.8 -16.6 45.9 -29.4 67 c -11.5 18.9 -25.5 35.7 -42.1 49.9 c -12.8 11 -27.5 19.9 -41.7 29.2 c -6.1 4 -13 7.1 -19.9 9.7 c -11.2 4.2 -22.5 8.4 -34 11.3 c -13.1 3.3 -26.5 5.3 -39.8 7.8 c -1.5 0.3 -3.1 0.4 -5.2 0.9 c -2.6 0.2 -4.6 0.1 -6.8 -0.1 c -0.3 -0.4 -0.6 -0.6 -0.8 -1.1 c 0.1 -24.9 0.1 -49.4 0.2 -73.9 c 0 -1.9 0.5 -3.8 1.3 -5.7 c 4.5 -0.3 8.6 -0.5 12.6 -1 c 2.6 -0.3 5.1 -1.2 8.1 -1.9 c 13.4 -2.3 25.9 -6 38 -11.6 c 14.1 -6.5 26.4 -15.2 38.2 -25.1 c 16.4 -13.7 27.8 -31 36.9 -50.1 c 1.9 -4.1 3.1 -8.2 0.7 -12.7 c -2.2 0.3 -4.3 0.5 -5.7 0.7 c -3.5 6.4 -6.2 12.5 -9.9 18.1 c -6.7 10.1 -13.1 20.5 -21 29.6 c -13.1 14.8 -29.3 25.7 -48 32.4 c -9.1 3.3 -18.2 6.6 -27.6 8.6 c -7.3 1.6 -15 1.4 -22.7 1.6 c -0.4 -6.2 -0.7 -12 -0.7 -18 c 6.1 -0.6 12 -0.8 17.7 -1.7 c 3.9 -0.6 5.7 -5.1 3.2 -7.8 c -1.4 -1.5 -4 -2.5 -6.1 -2.5 c -5.7 0.1 -11.5 1.3 -17.2 1.2 c -12.8 -0.3 -25.7 -1.3 -38.5 -1.9 c -2.7 -0.1 -3.5 -1.2 -3.4 -3.6 c 0.1 -4.5 0.1 -9 0.5 -13.4 c 32.5 0 64.5 0 96.6 0.4 c 0.4 3.5 0.7 6.6 0.8 9.8 c 0.2 5.1 2.4 6.5 6.6 3.4 c 8.1 -6 16.7 -11.5 23.7 -18.7 c 7.4 -7.6 13.1 -16.9 19.5 -25.5 c 2.1 -2.8 4.1 -5.7 1.6 -9.3 c -4.5 0 -8.9 0 -13.3 -0.5 c 0.1 -15.5 0.1 -30.5 0.5 -45.4 c 1 1.5 1.4 3.2 2.4 4.4 c 0.8 0.9 2.1 1.6 3.4 1.9 c 2.3 0.6 4.7 0.9 7.3 1.3 c 0.4 -1.1 1 -2.9 1.9 -4.7 c 0.2 0 0.7 0.2 0.7 0.6 c 0 6 -0.4 11.5 0.2 16.9 c 0.3 2.3 2.7 4.3 4.1 6.4 c 1.7 -1.7 3.6 -3.3 5.1 -5.2 c 0.6 -0.7 0.4 -1.9 0.6 -2.9 c 1.3 -8.6 2.6 -17.3 4.3 -26 c 1.1 -4 1.9 -7.8 2.7 -11.7 c 0.5 -2.3 0.5 -5.2 1.9 -6.8 c 2.9 -3.5 6.7 -6.3 10.1 -9 c 0.4 3.1 0.7 5.8 0.7 8.7 c -0.4 7.2 -0.5 14.3 -0.5 21.3 c 0 1.8 0.5 3.7 0.8 5.9 c -0.3 3.4 -1 6.4 -0.7 9.3 c 0.2 2 1.5 4.1 2.7 5.8 c 0.5 0.6 2.9 0.7 3.3 0.2 c 1.8 -2.4 4.2 -5 4.6 -7.8 c 1 -7.3 1 -14.8 1.8 -22.2 c 5.5 0.1 10.6 0.2 15.5 0.8 c 0.2 3.2 0.5 6 1 8.9 c 0.3 0.4 0.5 0.5 0.8 1.1 c 0 2.5 0 4.5 -0.2 6.7 c -0.3 0.4 -0.2 0.7 0.2 1.3 c 0.1 1.4 0.2 2.5 -0.1 3.8 c -1.1 3.9 -2.3 7.5 -2.8 11.2 c -1.9 15.2 -7 29.6 -13.2 43.4 c -4 8.9 -9.3 17.2 -14.8 25.4 c -5.6 8.3 -12 16 -18.4 23.9 c -6.6 5.3 -12.8 10.7 -19.4 16.4 c 2.1 2.7 4 5.2 6.4 8.3 c 6.1 -5.3 11.7 -10.2 17.2 -15.2 c 1 -0.9 1.4 -2.4 2.4 -3.7 c 2.1 -1.5 4.4 -2.6 5.6 -4.5 c 8.8 -12.5 17.7 -25 25.8 -38 c 3.2 -5.1 4.5 -11.4 6.8 -17.1 c 2.4 -5.9 5.5 -11.5 7.3 -17.5 c 7.1 -22.8 7.7 -46.2 7.1 -70.2 c -0.3 -1.8 -0.6 -3.3 -1 -5.1 c 0 -1.5 0 -2.5 0 -3.9 c -0.3 -1.1 -0.7 -1.9 -1 -3.1 c 0 -1.1 0 -1.8 0 -2.9 c -0.3 -1.5 -0.6 -2.6 -1 -4.1 c -1 -4.8 -2 -9.1 -3 -13.8 c -0.3 -1.2 -0.6 -2 -1.1 -3.1 c -0.7 -2.4 -1.3 -4.5 -1.9 -6.9 c -0.3 -0.8 -0.7 -1.3 -1.1 -2.1 c -0.7 -2.1 -1.3 -3.8 -1.7 -5.9 c 6.2 -4.1 -0.8 -8.4 1.2 -12.8 c 1.7 1.6 2.9 3.4 3.8 5.3 c 1.3 2.6 2.2 5.1 5.6 1.9 c 1.3 -1.2 3.5 -1.5 5.4 -1.9 c 0.7 3.1 1.4 5.8 2.1 8.8 c 0.4 0.5 0.6 0.7 1 1.2 c 0.7 1.7 1.3 3.2 1.7 4.7 c 0 0.4 0.1 0.7 0.2 1.1 c 0 0.2 0.1 0.6 0 1 c 0.6 1.5 1.2 2.7 1.9 4 c 0 0.2 0.1 0.7 -0.1 0.8 c 0 0.3 0.2 0.6 0.6 1 c 0.3 1.1 0.5 2 0.4 3 c 0 0.3 0.2 0.6 0.5 1.1 c 0.3 1.1 0.5 2 0.4 3 c 0 0.7 0.1 1.3 0.5 2.1 c 0.4 1.1 0.5 1.9 0.4 3 c 0.2 1.1 0.7 1.9 1.2 3.2 c 0 1.1 0 1.9 -0.1 2.7 c 0 0.3 0.2 0.6 0.6 1.1 c 0.7 6.6 1 12.9 1.6 19.1 c 0.3 3.2 1.2 6.4 1.9 10.1 c 0 4.2 0 7.9 -0.3 11.9 c -1.2 9.1 -1.4 18.1 -3.3 26.6 c -3.2 14.4 -6.9 28.8 -11.6 42.8 c -3.3 9.6 -8.5 18.6 -13.3 27.6 c -3.8 7.1 -8.3 13.9 -12.8 20.7 c -2.4 2.6 -4.5 5.3 -6.6 8 c 0 0 0.1 0 -0.3 -0.2 c -2.2 1.8 -4.1 3.7 -5.8 5.7 c -1.4 1.7 -2.6 3.6 -4.1 5.5 c -4.9 4.4 -9.4 8.8 -14.3 12.8 c -15.1 12.7 -32.1 22.5 -50 30.6 c -4.6 2.1 -9.7 3 -14.9 4.5 c -10.1 3.7 -20.1 6.1 -30.5 7.3 c 0.7 0.6 1.1 0.9 2.5 2 c -3.5 -0.6 -5.8 -0.9 -9.1 -1.4 c 0 3.6 -0.2 6.9 0.3 10.1 c 0 0.3 3.9 0.1 6.4 0.1 c 7.7 -1.5 15.1 -2.6 22.2 -4.6 c 7.4 -2 14.8 -4.3 21.8 -7.5 c 11.5 -5.2 23.2 -10.5 33.9 -17.2 c 9.6 -5.9 18.3 -13.2 26.8 -20.6 c 8 -7 15.8 -14.4 22.6 -22.6 c 7.1 -8.5 13.1 -18 19 -27.4 c 4.7 -7.5 8.4 -15.6 12.8 -23.5 c 0.4 -0.6 0.5 -1.1 0.8 -2 c 1.2 -3.9 2 -7.5 3.2 -11 c 2.4 -6.6 5.4 -13 7.3 -19.8 c 5.2 -18 7.2 -36.6 7.1 -55.3 c 0 -11.5 -1.9 -23 -2.9 -34.9 c -0.3 -1.5 -0.6 -2.6 -1 -4.1 c -0.7 -3.4 -1.4 -6.4 -2 -9.8 c -0.3 -1.5 -0.6 -2.6 -1.1 -4.1 c -0.8 -2.4 -1.4 -4.5 -1.9 -6.8 c -0.3 -0.8 -0.6 -1.4 -1 -2.1 c 0 -0.2 -0.1 -0.6 0 -0.9 c -0.3 -1.2 -0.6 -2 -1.1 -3.2 c -0.7 -2 -1.3 -3.8 -1.9 -5.8 c -0.3 -0.8 -0.6 -1.4 -1 -2.2 c -1.1 -2.7 -2.1 -5.1 -3.1 -7.7 c -0.3 -0.9 -0.6 -1.4 -1.1 -2.2 c -1.1 -2.4 -2 -4.4 -2.9 -6.8 c -0.3 -0.8 -0.6 -1.3 -0.9 -1.8 c 0 0 0 -0.1 -0.1 -0.4 c -0.4 -0.7 -0.8 -1.1 -1.4 -1.7 c -1 -2.1 -1.9 -3.9 -2.3 -6 c 3.4 -2 4.2 0.4 5.7 2.3 c 1.4 1.8 3.6 3 5.4 4.4 c 1.6 -2.2 3.7 -4.2 4.7 -6.7 c 1.9 -4.9 -0.6 -9.3 -2.9 -13.6 c -1 -2 -1.8 -3.8 1.2 -4.6 m -168.2 301 s -0.1 0 0.8 0 c 10.7 -2.5 21.7 -4.2 32 -7.8 c 9.8 -3.4 18.8 -8.8 28.9 -13.2 c 3.1 -2 3.6 -4.1 1.3 -7.3 c -2.3 -3.2 -4.4 -3.8 -7.3 -0.9 c -0.5 0.5 -1.6 0.4 -2.3 0.8 c -2.4 1.4 -4.8 2.9 -7.9 4.6 c -8 3.1 -15.9 6.5 -23.9 9.4 c -4.1 1.5 -8.4 2.3 -13.6 3.4 c -4.2 0.4 -8.4 0.8 -13.1 1.3 c 0 2.6 0.1 4.9 0 7.2 c -0.2 2.9 1.3 3.9 4.4 3.3 c 0.2 -0.3 0.4 -0.6 0.6 -0.8 z"/><path d="M 69.8 402.1 c -0.5 -0.5 -1.1 -1 -1.8 -1.9 c -0.4 -0.8 -0.6 -1 -0.9 -1.1 c 0 0 -0.1 -0.1 -0.1 -0.4 c -0.4 -0.8 -0.8 -1.2 -1.1 -1.6 c -0.5 -0.5 -1.1 -1 -1.6 -2 c 5.7 -1.5 11.4 -2.4 17 -3.4 c 0.8 -1.7 1.9 -3.8 3.2 -5.7 c 1.3 1.4 2.4 2.7 3.5 4.3 c 1 1.5 2 2.6 3.2 4 c 2.7 2.8 5.3 5.2 7.8 7.9 c 0.3 0.4 0.7 0.6 1.3 0.9 c 2.4 2.4 4.5 4.6 6.7 7.2 c 1.1 1.1 2.2 1.8 3.6 2.6 c 1.7 0.9 3.2 1.7 4.5 2.6 c 8 5.5 16 11 24.1 16.9 c 5.6 3.4 11.2 6.4 17 9.7 c 1 0.4 1.8 0.6 2.7 1.2 c 4.8 2.1 9.5 3.9 14.4 5.9 c 5.9 2.2 11.4 4.5 17.1 5.9 c 9.5 2.3 19.2 4 29 6.4 c 7.8 0.8 8.1 0.7 7.8 -5.2 c -0.2 -4.1 -3.1 -4.8 -6.6 -5.3 c -8.1 -1.2 -16.2 -2.6 -24.2 -4.3 c -5.2 -1.1 -10.2 -3 -15.7 -4.7 c -4.4 -1.5 -8.4 -3 -12.5 -4.6 c -0.8 -0.6 -1.4 -0.9 -2.4 -1.4 c -4.6 -1.8 -8.9 -3.5 -13.2 -5.4 c -2.7 -1.2 -5.3 -2.6 -7.7 -4.3 c -4 -2.8 -7.7 -5.9 -11.5 -8.9 c -7.5 -6 -15 -12.1 -22.6 -18.5 c -0.8 -0.4 -1.4 -0.5 -2.2 -0.8 c -1.4 -1.4 -2.6 -2.6 -3.7 -4.1 c -0.6 -0.8 -1.2 -1.3 -1.8 -1.8 c -0.1 0 -0.1 -0.1 -0.1 -0.5 c -0.7 -1.1 -1.4 -1.8 -2.3 -2.7 c -1.4 -1.4 -2.5 -2.6 -3.7 -4 c -0.3 -0.5 -0.5 -0.7 -0.9 -0.8 c 0 0 -0.1 -0.1 -0.1 -0.3 c -0.3 -0.5 -0.5 -0.6 -0.8 -0.7 c -0.1 0 -0.1 -0.1 -0.1 -0.4 c -0.4 -0.7 -0.7 -1.2 -1.3 -1.8 c -1.1 -1 -1.9 -1.9 -2.7 -3 c -0.3 -0.8 -0.7 -1.3 -1.3 -2 c -1.1 -1 -2 -1.9 -2.8 -3.1 c 1.2 -5.5 5.1 -2.3 7.7 -3 c 2.8 -0.8 5.3 -2.7 8.1 -4.2 c 0 0.8 0.1 1.4 0 2 c -0.9 6.5 2.5 9.2 8.6 6.9 c 1.8 -0.7 3.8 -1 5.8 -1.1 c 0 0.5 0.1 0.7 -0.1 1.2 c -2.9 2.4 -3.5 4.4 -0.1 6.8 c 2.3 1.6 4.1 3.8 6.3 6 c 4.2 3.6 8.4 6.9 12.8 10.4 c 2.2 -2.8 4.1 -5.2 6.4 -8.2 c -3.6 -2.7 -7 -5.2 -10.5 -8 c -1.4 -1.7 -2.7 -3.1 -3.7 -4.6 c 4.9 -1.9 4.1 -5.5 3.2 -8.9 c -0.8 -3 0.2 -4.1 3.1 -3.9 c 1.2 0.1 2.3 0 3.8 0.2 c 5.4 4.4 10.5 8.6 15.8 13 c 0.4 0.4 0.6 0.7 1.1 1.1 c 0.7 0.4 1.2 0.6 1.9 0.9 c 0.3 0.5 0.5 0.7 1.1 1 c 6.9 3.8 13.4 7.3 20 10.9 c 13.3 7.3 27.6 11.3 42.9 13.3 c 2 0.5 3.8 0.6 6.3 0.7 c -0.4 -4 -0.8 -7.5 -1.4 -10.9 c -0.5 0.2 -0.8 0.4 -1.3 0.8 c -0.8 0 -1.2 0 -1.8 -0.4 c -4 -1.4 -7.9 -2.4 -12.1 -3.7 c -1.1 -0.4 -2 -0.6 -3.1 -0.8 c -0.2 0 -0.6 0 -0.8 -0.2 c -1.1 -0.1 -2.1 0.1 -3.2 0.3 c -0.2 0 -0.6 -0.1 -0.7 -0.4 c -1.1 -0.7 -2.2 -1.1 -3.6 -1.6 c -4.4 -1.7 -8.4 -3.4 -12.6 -5.4 c -0.8 -0.4 -1.3 -0.6 -2.2 -0.6 c -5.4 -2.6 -10.5 -5.4 -15.6 -8.5 c 0.3 -1.6 0.5 -2.8 0.7 -4 c -0.3 -0.1 -0.7 -0.2 -1 -0.3 c -0.6 0.9 -1.2 1.8 -2 2.6 c -0.2 0 -0.7 0 -0.8 -0.2 c -0.4 -0.4 -0.7 -0.6 -1.3 -0.9 c -0.7 -0.4 -1.1 -0.7 -1.8 -1.2 c -0.7 -0.4 -1.3 -0.6 -2 -1 c -0.3 -0.5 -0.5 -0.6 -0.9 -0.9 c -0.3 -0.4 -0.5 -0.6 -0.9 -0.6 c -0.1 0 -0.1 -0.2 0.1 -0.5 c 2.1 -2.1 2.7 -6.7 7.2 -3 c 5.1 4.2 9.2 2.2 11 -4.7 c 0.2 0 0.7 0 0.9 0.3 c 0.5 0.4 0.8 0.5 1.3 0.8 c 1.3 0.8 2.4 1.4 3.7 2.2 c 0.7 0.1 1.3 -0.1 2.1 -0.2 c 0.2 0 0.6 0 0.8 -0.1 c 0.5 -0.3 0.7 -0.6 1.2 -0.9 c 0.2 0 0.7 0 0.7 0.3 c 0.9 1.2 1.7 2 2.6 2.7 c 1.4 1 3.7 1.5 4.1 2.8 c 1.6 4.2 4.7 4.5 8.4 4.5 c 0.4 0.4 0.6 0.6 1 0.7 c 0 0 0 0.1 0.1 0.3 c 0.3 0.5 0.6 0.6 1.1 0.7 c 0.2 0 0.7 0 0.9 0.2 c 0.7 0.1 1.3 -0.1 2.2 -0.2 c 1.4 0.4 2.5 0.7 3.8 1.2 c 0.8 0.4 1.3 0.6 2.3 0.7 c 11.8 0.7 23.1 1.3 34.5 2.4 c 0.1 1.2 0.3 2 0.4 3.3 c 0.1 6.7 0.3 13 0.4 19.7 c 0 21.5 0 42.6 0 64.1 c -0.1 2.8 0 5.2 -0.1 7.9 c -0.1 1.1 0 1.8 0 3 c -0.2 2.8 -0.2 5.1 -0.3 7.8 c -0.1 0.9 -0.2 1.4 -0.2 1.9 c 0 0 0 0 -0.5 0 c -4.2 0.3 -7.9 0.6 -11.6 0.9 c -56.3 -3.4 -105.2 -24.1 -147 -62.9 c -1.3 -1 -2.3 -1.5 -3.2 -1.9 c -1.2 -1.1 -2.4 -2.3 -3.8 -4 c -0.9 -1 -1.5 -1.5 -2.2 -1.9 c -0.6 -0.5 -1.1 -1 -1.9 -2 c -0.3 -0.8 -0.5 -1 -0.8 -1 c 0 0 -0.2 -0.1 -0.2 -0.5 c -0.4 -0.8 -0.7 -1.2 -1.1 -1.6 c -1.5 -1.5 -3.1 -2.9 -4.8 -4.9 c -0.3 -0.8 -0.6 -1 -0.9 -1.1 c 0 0 -0.2 -0.1 -0.2 -0.5 c -0.4 -0.8 -0.8 -1.2 -1.1 -1.6 m 88.3 -0.4 c -2.3 -1.1 -4.7 -1.9 -5.7 1.4 c -0.5 1.6 -2.3 4.2 1.5 5.5 c 0.4 0.7 0.5 1.8 1.1 2 c 7.8 3.8 15.5 7.9 23.5 10.9 c 10.1 3.9 20.4 7.4 30.9 10 c 5.5 1.4 11.6 0.4 17.6 -0.5 c 0 -2.9 0 -5.8 0 -8.6 c -7.5 -0.9 -14.3 -1.7 -21.8 -2.6 c -3.7 -0.8 -7.5 -1 -10.9 -2.4 c -9.8 -4.1 -19.3 -8.7 -29 -13.1 c -1.5 -0.7 -3.1 -1 -5.1 -1.4 c 0 0 -0.4 -0.2 -0.7 -0.5 c -0.3 -0.2 -0.5 -0.3 -1.6 -0.8 z" fill="#0d141a"/><path d="M 199 20.1 c 8.4 -1.7 16.7 -3.8 25.1 -4.9 c 8 -1 16.1 -0.9 24.6 -0.8 c 0.5 26.8 0.5 53.1 0.1 79.5 c -2.5 0.4 -4.6 0.7 -6.7 1 c -11 1.4 -22 2.7 -33.3 3.8 c -3.1 -5 -2.3 -8.1 3.3 -12.2 c 2.1 -1.6 4.4 -2.9 6.6 -4.4 c -3 -0.8 -5.4 -1.4 -7.3 -2.1 c 3.4 -0.5 6.3 -1.1 9.2 -1.4 c 7.3 -0.7 9 -3.4 6.3 -11.3 c -2.7 0.5 -5.6 1.1 -8.4 1.4 c -3.1 0.3 -6.3 0.1 -9.5 -0.2 c 0.4 -6.5 -1 -13.3 5.9 -17.1 c 0.1 0 0 -0.3 0.1 -0.5 c 0 0 0 0 0.3 0 c 1.1 -0.3 1.9 -0.6 3.1 -1 c 10.4 -1.1 11.1 -2 8.8 -11.5 c -2.7 0.4 -5.5 1 -8.3 1.2 c -3.8 0.3 -7.7 0.3 -11.9 0.4 c -1.3 0.3 -2.1 0.6 -3.2 1 c -0.2 0 -0.6 0.2 -0.7 -0.2 c -4.8 -6.5 -4.7 -13.6 -4.1 -20.8 z" fill="#2a2a28"/><path d="M 17 275 c -0.3 -8.8 -0.6 -17.6 -0.5 -26.8 c 0.8 -0.6 1.2 -0.8 1.7 -1.1 c 0 -0.1 0.1 0 0.5 0.1 c 6.4 0.1 12.3 0 18.6 0.2 c 2.4 0.2 4.4 0.4 6.4 0.4 c 25.5 0.1 50.9 0.1 76.4 0.6 c 0 6 0 11.5 0 16.8 c -3.4 -0.8 -6.5 -2.7 -8.5 -1.9 c -5.4 2.1 -10.5 4.3 -16.5 4.1 c -0.3 0 -0.7 1 -1.3 1.7 c -0.4 0.7 -0.5 1.2 -0.8 2.1 c -2.4 3.3 -5 1.3 -6.2 -0.3 c -2.8 -3.5 -6.1 -3.8 -10.1 -2.9 c -0.2 0 -0.6 -0.1 -1 -0.3 c -8.8 -1.5 -8.8 -1.5 -12 7.9 c -5 -2.6 -9.9 -5.1 -15 -7.6 c -0.2 0 -0.7 -0.1 -1 -0.3 c -8.4 -1.4 -8.4 -1.4 -10.9 5.1 c -0.2 0.6 -0.6 1.4 -1.1 1.6 c -4.8 1.1 -9.6 2.3 -14.5 2.9 c -1.3 0.2 -2.8 -1.4 -4.2 -2.2 z" fill="#222424"/><path d="M 61.8 111.6 c 2.4 -3.5 4.5 -7.1 7.1 -10.4 c 5.1 -6.3 10 -12.9 15.8 -18.5 c 8.3 -7.9 17.3 -14.9 26.1 -22.3 c 11.4 -9.6 24.1 -17.1 37.9 -23.1 c -0.2 2.2 -0.9 4 -1.3 5.8 c -0.3 1.8 -0.6 3.7 -0.2 5.4 c 0.8 3.6 2 7.1 3 11 c -2 1.8 -3.8 3.5 -5.9 4.7 c -16 9.4 -30.6 20.6 -43.7 33.7 c -6.6 6.6 -12.4 14.1 -18.7 20.8 c -1.5 -1.2 -2.9 -2.8 -4.2 -2.7 c -4.3 0.3 -7.3 -1.1 -8.8 -5.1 c -5.5 2.7 -5.5 2.7 -7.1 0.6 z" fill="#393530"/><path d="M 16.1 238.2 c 2 -13.5 3.9 -26.9 6.3 -40.8 c 1.9 -1 3.6 -1.3 4.8 -2.2 c 5.9 -4.6 9.4 -4.1 13.8 2.2 c 1 -0.5 2.1 -0.9 3 -1 c -1.3 6.4 -2.5 12.4 -3.7 18.4 c -0.2 0.8 -0.3 2 0.2 2.5 c 2.3 2.4 9.6 0.2 10.5 -3 c 2.6 -9.8 5.1 -19.6 8 -29.3 c 2.2 -0.8 4 -1.8 6 -2.5 c 1.4 -0.5 3 -1.1 4.4 -0.9 c 0.4 0 0.7 2.4 1 3.6 c 0.2 1.1 0.3 2.2 0.5 3.6 c 1.9 -0.8 3 -1.4 4.4 -1.6 c -5.1 16.4 -8.6 32.9 -9.8 50.1 c -4.5 0.5 -8.6 0.9 -13 1.2 c -12.4 -0.2 -24.3 -0.3 -36.3 -0.3 z" fill="#292927"/><path d="M 259.2 14.9 c 9.1 0.7 18.1 1.3 27.5 2.5 c 1 2.7 2.1 4.8 2.2 7 c 0.2 5.2 2 10.9 -4.2 14.5 c -1.1 -0.3 -1.9 -0.6 -2.9 -0.9 c -1.4 0.7 -3.3 1.3 -3.6 2.4 c -1.5 6 0.1 9 5.8 12.1 c -0.9 1.4 -1.7 2.9 -2.8 4 c -3.8 3.6 -4.8 7.6 -3.5 12.6 c 0.7 2.5 0.7 5.4 0 7.9 c -1.3 4.9 -3.1 9.6 -5.1 14.2 c -0.5 1 -2.6 1.7 -4.1 1.9 c -2.9 0.3 -5.8 0.1 -8.9 -0.2 c -0.2 -1.7 -0.5 -3.1 -0.5 -4.4 c 0 -24.5 0 -48.9 0 -73.4 z" fill="#252625"/><path d="M 453.1 129.6 c -3 1.2 -2.2 2.9 -1.1 4.9 c 2.2 4.2 4.8 8.6 2.9 13.6 c -0.9 2.5 -3.1 4.5 -4.7 6.7 c -1.8 -1.4 -4 -2.6 -5.4 -4.4 c -1.5 -1.9 -2.3 -4.3 -5.9 -2.6 c -8.6 -14.6 -18 -28.1 -29.1 -40.8 c -0.2 -0.5 -0.5 -0.7 -0.9 -0.9 c 0 0 -0.1 -0.1 -0.2 -0.3 c -0.4 -0.3 -0.7 -0.5 -1.3 -0.8 c -0.7 -1.1 -1.2 -2 -1.2 -2.9 c 1.5 -1.5 3.2 -2.9 3.6 -4.5 c 0.5 -2.6 0.1 -5.4 0.1 -9.4 c 4.6 2.2 7.9 3.7 11.1 5.4 c 2.3 1.1 4.6 3 5.1 -1.6 c 8 10.8 15.9 21.6 23.6 32.8 c -0.6 1 -0.9 1.6 -1.1 2.2 c 0.8 0 1.6 0 2.4 0.1 c 0.7 0.8 1.3 1.6 2.1 2.7 z" fill="#11171c"/><path d="M 150.2 59.3 c -1 -3.6 -2.2 -7.1 -3 -10.7 c -0.4 -1.7 -0.1 -3.6 0.2 -5.4 c 0.3 -1.9 1.1 -3.7 1.6 -5.9 c 1.4 -1.1 2.8 -1.7 4.8 -2.3 c 1.2 -0.3 1.7 -0.6 2.2 -0.9 c 0 0 0.3 -0.1 0.8 -0.1 c 0.7 -0.4 0.9 -0.7 1.2 -1 c 12.9 -5.7 26.2 -10.3 40.6 -12.8 c -0.2 7.2 -0.3 14.2 4.3 21 c -0.8 0.9 -1.3 1.3 -2 1.5 c -10.6 3.3 -21.2 6.5 -31.8 9.9 c -6.4 2.1 -12.7 4.5 -19 6.8 z" fill="#312f2c"/><path d="M 426.1 91.8 c -0.4 4.6 -2.8 2.8 -5 1.6 c -3.2 -1.6 -6.5 -3.2 -11.1 -5.4 c 0 4.1 0.4 6.8 -0.1 9.4 c -0.3 1.6 -2.1 3 -3.8 4.3 c -3.5 -3 -6.3 -5.9 -9.1 -9 c -0.4 -0.9 -0.8 -1.5 -1.2 -2 c -0.3 0.5 -0.6 1 -1.1 1.3 c -9.3 -7.5 -18.3 -14.9 -27.4 -22.2 c -1.7 -1.4 -3.6 -2.5 -5 -4 c 8.6 -1.4 13.4 -6.9 16.8 -13.9 c 5.5 3.7 11.5 6.9 16.5 11.2 c 9.7 8.4 18.9 17.4 28.5 26.6 c 0.4 0.8 0.6 1 0.9 1.1 c 0 0 0.1 0 0.2 0.3 c 0.3 0.5 0.5 0.6 0.8 0.7 c 0 0 0.1 0 0.2 0 z" fill="#151b1f"/><path d="M 44.1 196 c -1 0.5 -2.1 0.9 -3.1 1.4 c -4.4 -6.3 -7.9 -6.8 -13.8 -2.2 c -1.2 0.9 -2.9 1.2 -4.8 1.8 c 3.8 -16.3 8.4 -32.4 16.9 -47.7 c 8.1 -1.4 14.6 1 20.7 5.1 c -5.4 14.1 -10.7 27.8 -16 41.6 z" fill="#2f2e2c"/><path d="M 249.8 472.1 c 0 -2.4 0 -4.8 0.3 -7.9 c 0.6 -1.5 0.9 -2.3 0.9 -3.1 c 0 -19.2 0 -38.3 0 -57.5 c 0 -1.2 -0.7 -2.4 -1.1 -3.7 c -0.2 -6.3 -0.3 -12.5 -0.3 -19.3 c 0.2 -0.5 0.5 -0.6 0.7 -0.8 c 0 -0.7 -0.1 -1.3 -0.3 -2.1 c 0 -0.2 0.1 -0.7 0.5 -0.7 c 3.1 -0.1 5.8 -0.2 8.5 -0.2 c 0.3 5.8 0.5 11.7 0.9 18.3 c 0.1 3.1 0.1 5.4 -0.2 7.9 c -0.1 1.1 0.1 2 0.3 2.9 c -0.3 1.9 -0.8 3.8 -0.8 5.7 c -0.1 24.5 -0.1 49 -0.5 73.9 c -0.8 0.5 -1.2 0.5 -2.1 0.4 c -2.5 0 -4.6 0 -6.7 0 c 0 0 -0.4 0 -0.6 -0.2 c -0.2 -0.2 -0.3 -0.6 -0.3 -0.6 s 0 0 0.3 0 c 0.2 0 0.7 -0.1 0.9 -0.2 c 0.1 -0.7 0 -1.3 -0.3 -1.9 c -0.2 -0.1 -0.5 -0.2 -0.5 -0.2 c 0 -2.3 0 -4.7 0.4 -7.5 c 0.2 -1.4 0.1 -2.3 -0.1 -3.2 z" fill="#a46c1b"/><path d="M 60.2 154.1 c -6.2 -3.8 -12.8 -6.2 -20.7 -5.1 c 3.5 -7.5 7.1 -15.1 11.3 -22.3 c 3 -5.2 6.8 -9.9 10.6 -14.9 c 2 2 2 2 7.5 -0.7 c 1.5 4 4.5 5.4 8.8 5.1 c 1.3 -0.1 2.7 1.5 4 2.9 c -0.5 1 -1.1 1.4 -1.9 2.1 c -0.4 0.8 -0.6 1.5 -1 2.4 c -6.3 10.4 -12.5 20.5 -18.7 30.6 z" fill="#33312d"/><path d="M 258.9 14.6 c 0.2 24.8 0.2 49.3 0.2 73.7 c 0 1.3 0.2 2.6 0.5 4.6 c 0.1 0.6 0.2 1 0 1.3 c -3.6 0.1 -7 -0.1 -10.4 -0.4 c 0 -26.3 0 -52.6 0 -79.4 c 3.2 -0.4 6.3 -0.3 9.8 0.1 z" fill="#9e681a"/><path d="M 84.2 385.9 c -1.1 2.1 -2.1 4.2 -3 5.8 c -5.6 0.9 -11.3 1.9 -17.2 3.2 c -3.1 -3.8 -5.9 -8 -8.9 -12.8 c -0.5 -1.1 -0.9 -1.6 -1.3 -2 c -1.6 -2.4 -3.3 -4.8 -4.9 -7.9 c -0.8 -1.5 -1.5 -2.2 -2.3 -3 c -0.3 -0.5 -0.5 -1 -0.4 -1.8 c 5.2 -0.6 3.6 -3.8 3.2 -6.5 c -0.2 -1.8 -0.1 -3.6 -0.1 -5.4 c 1.7 0.7 3.6 1.2 5.1 2.3 c 2.3 1.6 4.7 3.3 6.4 5.4 c 2.5 3.1 5.5 4.1 9.5 4 c 1.2 1.3 2.1 2.4 3 3.6 c 3.6 5 7.2 10.1 10.9 15.1 z" fill="#11181c"/><path d="M 17 275.4 c 1.4 0.4 3 2 4.3 1.8 c 4.9 -0.6 9.7 -1.8 14.5 -2.9 c 0.5 -0.1 0.9 -1 1.1 -1.6 c 2.5 -6.5 2.5 -6.5 10.6 -4.8 c -1.9 0.7 -3.9 0.6 -5.8 1.1 c -0.9 0.2 -2.3 1.6 -2.2 2.4 c 0.1 3.8 0.6 7.5 1.1 11.2 c 1.1 7.4 2.3 14.9 3.2 22.5 c -3.5 1.1 -7 3.1 -9.8 2.4 c -4.5 -1.1 -7.1 0.7 -9.9 3.3 c -1.6 -6.4 -3.5 -12.7 -4.9 -19.2 c -1.1 -5.2 -1.5 -10.6 -2.2 -16.4 z" fill="#1c2021"/><path d="M 378.9 51.7 c -3.3 7.3 -8.1 12.7 -17.1 14.1 c -7.1 -3.2 -13.4 -6.5 -19.9 -10 c -0.5 -0.4 -0.8 -0.6 -1.4 -0.8 c -0.7 -0.3 -1.1 -0.6 -1.6 -1.3 c 0.6 -2.5 1.2 -4.7 1.9 -6.7 c 1.7 -4.4 3.5 -8.8 5.2 -13.2 c 0 0 0.4 0.1 0.8 0.3 c 0.7 0.4 1 0.6 1.3 0.8 c 8.3 4.3 16.6 8.6 24.8 12.8 c 1.1 0.6 2.2 1.3 3.8 2.2 c 0.8 0.5 1.1 0.7 1.4 0.8 c 0.3 0.2 0.5 0.4 0.7 0.9 z" fill="#1a1e21"/><path d="M 24 311.4 c 2.7 -3.1 5.4 -4.8 9.8 -3.7 c 2.9 0.7 6.3 -1.4 10.1 -2.2 c 4 10.2 7.5 20.3 10.6 30.6 c -0.8 1.2 -1.2 2.4 -1.7 3.6 c -0.7 0.6 -1.3 1.2 -2 1.8 c -1.1 -2 -1.8 -4.6 -3.4 -5.9 c -1.6 -1.4 -4.2 -2.2 -6.4 -2.2 c -2.6 -0.1 -2.7 2 -2.4 4.3 c 0.2 1.3 -1.2 2.8 -1.8 4 c -1.8 -0.6 -3 -1 -4.2 -1.4 c -2.9 -9.5 -5.8 -19 -8.7 -28.9 z" fill="#1a1e21"/><path d="M 345.9 33.5 c -1.5 4.7 -3.3 9 -5 13.5 c -0.8 2.1 -1.3 4.2 -2.2 6.8 c -5.7 -1.6 -11.2 -3.7 -16.8 -6 c -0.4 -0.4 -0.8 -0.6 -1.3 -0.8 c -0.2 0 -0.6 0 -0.8 -0.3 c -1.4 -0.8 -2.7 -1.3 -4.2 -1.7 c -0.8 0 -1.2 0 -1.7 -0.3 c -1.2 -1.1 -2.3 -1.9 -4.4 -3.4 c 3 -3.9 6 -7.6 8.5 -10.9 c -0.4 -2.4 -0.7 -4.4 -1.1 -6.5 c 0.4 0 0.9 0.1 1.8 0.4 c 2.1 0.7 3.6 1.2 5.2 1.6 c 0.4 0 0.8 0 1.7 0.3 c 0.7 0.5 0.9 0.7 1.3 0.8 c 6.2 2.1 12.4 4.2 18.8 6.6 z" fill="#202223"/><path d="M 32.8 340.6 c 1.1 0.1 2.3 0.4 4.1 1 c 0.6 -1.3 2 -2.7 1.8 -4 c -0.3 -2.3 -0.2 -4.3 2.4 -4.3 c 2.2 0.1 4.8 0.8 6.4 2.2 c 1.6 1.4 2.3 3.9 3.4 5.9 c 0.7 -0.6 1.3 -1.2 2 -1.8 c 0.5 -1.2 0.9 -2.4 1.8 -3.2 c 5.1 9.7 9.7 19.1 14.5 28.7 c 0.3 0.5 0.6 0.7 0.9 1.1 c 0 0.2 0 0.7 0 0.7 c -3.7 0.3 -6.7 -0.7 -9.2 -3.8 c -1.7 -2.2 -4.1 -3.8 -6.4 -5.4 c -1.5 -1 -3.4 -1.5 -5.1 -2.3 c 0 1.8 -0.1 3.6 0.1 5.4 c 0.3 2.7 2 5.9 -3.3 6.2 c -4.7 -8.7 -9 -17.4 -13.4 -26.5 z" fill="#151b1f"/><path d="M 316.8 23.7 c 0.6 2.3 0.9 4.4 1.3 6.8 c -2.5 3.2 -5.5 7 -8.5 10.9 c 2 1.4 3.2 2.2 4 3.4 c -5.3 -0.7 -10.3 -1.7 -15.3 -2.8 c -4.4 -1 -8.9 -2 -13.3 -3 c 5.9 -3.6 4.1 -9.4 3.9 -14.5 c -0.1 -2.2 -1.2 -4.3 -1.9 -6.9 c 9.8 1.7 19.7 3.8 29.8 6.2 z" fill="#222424"/><path d="M 16.1 238.6 c 12 -0.3 24 -0.2 36.4 0.4 c -1.8 5.2 -6.8 3.4 -10.3 5.1 c -1.8 0.9 -3.5 2.1 -5.3 3.2 c -5.9 0 -11.9 0 -18.3 -0.1 c -0.6 -0.3 -0.7 -0.3 -0.8 -0.4 c 0.1 0.2 0.2 0.3 0.3 0.5 c -0.5 0.2 -0.9 0.3 -1.6 0.5 c -0.3 -2.9 -0.4 -5.8 -0.4 -9.1 z" fill="#95641e"/><path d="M 249.8 486.4 c 2.2 -0.4 4.3 -0.4 6.9 0 c 1.4 0.5 2.4 0.5 3.3 0.6 c 2 0.1 4.1 0.1 6.5 0.2 c 0.3 0.3 0.1 0.8 -0.1 0.8 c -9.9 0 -19.8 0 -29.7 -1.1 c 4.3 0 8.7 0 13.2 -0.4 z" fill="#e7e6dd"/><path d="M 248.6 485.1 c 0.5 0 0.6 0.4 0.6 0.5 c -3.7 0.3 -7.5 0.4 -11.7 0.4 c 3.2 -0.4 6.9 -0.7 11.1 -1 z" fill="#5b411f"/><path d="M 451 126.6 c -0.8 0.3 -1.6 0.2 -2.4 0.2 c 0.3 -0.6 0.6 -1.2 1.2 -1.9 c 0.6 0.4 0.9 0.9 1.2 1.6 z" fill="#0d1419"/><path d="M 323.9 25.7 c -1.4 -0.1 -2.9 -0.6 -4.7 -1.3 c 1.4 0.1 2.9 0.6 4.7 1.3 z" fill="#222424"/><path d="M 46.7 369.5 c 0.7 0.5 1.4 1.2 2.2 2.3 c -0.7 -0.4 -1.4 -1.2 -2.2 -2.3 z" fill="#151b1f"/><path d="M 87 421.4 c 0.8 0.2 1.7 0.6 2.8 1.4 c -0.8 -0.2 -1.7 -0.6 -2.8 -1.4 z" fill="#11181c"/><path d="M 81 415.4 c 0.5 0.2 1.2 0.6 1.9 1.4 c -0.6 -0.2 -1.1 -0.7 -1.9 -1.4 z" fill="#11181c"/><path d="M 53.9 380.4 c 0.3 0.2 0.7 0.6 1 1.4 c -0.3 -0.2 -0.7 -0.7 -1 -1.4 z" fill="#151b1f"/><path d="M 65.8 397.4 c 0.3 0.1 0.7 0.5 1.1 1.2 c -0.3 -0.1 -0.7 -0.5 -1.1 -1.2 z" fill="#11181c"/><path d="M 69.8 402.4 c 0.3 0.1 0.7 0.5 1.1 1.2 c -0.3 -0.1 -0.7 -0.5 -1.1 -1.2 z" fill="#11181c"/><path d="M 155.7 34 c -0.2 0.3 -0.7 0.6 -1.5 0.9 c 0.2 -0.3 0.7 -0.6 1.5 -0.9 z" fill="#393530"/><path d="M 76.8 410.4 c 0.3 0.1 0.7 0.5 1 1.2 c -0.3 -0.1 -0.7 -0.5 -1 -1.2 z" fill="#11181c"/><path d="M 67.1 399.3 c 0.3 -0.1 0.5 0.1 0.7 0.6 c -0.2 0.1 -0.5 -0.1 -0.7 -0.6 z" fill="#11181c"/><path d="M 78.1 412.4 c 0.3 -0.2 0.5 0 0.6 0.6 c -0.2 0.1 -0.4 -0.1 -0.6 -0.6 z" fill="#11181c"/><path d="M 71.1 404.4 c 0.3 -0.1 0.5 0 0.7 0.6 c -0.2 0.1 -0.4 -0.1 -0.7 -0.6 z" fill="#11181c"/><path d="M 327 26.7 c -0.2 0.1 -0.5 -0.1 -0.8 -0.5 c 0.2 0 0.4 0.1 0.8 0.5 z" fill="#222424"/><path d="M 425.9 91.6 c -0.2 0.1 -0.4 0 -0.7 -0.4 c 0.2 -0.2 0.5 0 0.7 0.4 z" fill="#11171c"/><path d="M 424.9 90.7 c -0.2 0.1 -0.5 -0.1 -0.7 -0.6 c 0.2 -0.1 0.4 0.1 0.7 0.6 z" fill="#11171c"/><path d="M 157.7 33 c 0 0.2 -0.2 0.5 -0.7 0.9 c 0 -0.2 0.2 -0.5 0.7 -0.9 z" fill="#393530"/><path d="M 378.1 50.6 c -0.2 0.1 -0.5 -0.1 -0.9 -0.5 c 0.2 -0.1 0.5 0.1 0.9 0.5 z" fill="#151b1f"/><path d="M 348 34.7 c -0.2 0.1 -0.5 -0.1 -0.9 -0.5 c 0.2 -0.1 0.5 0.1 0.9 0.5 z" fill="#202223"/><path d="M 476 181.7 c -0.2 0 -0.5 -0.1 -0.9 -0.6 c 0.2 -0.1 0.5 0.1 0.9 0.6 z" fill="#11171c"/><path d="M 474.9 178.8 c -0.2 0 -0.4 -0.2 -0.8 -0.7 c 0.2 0 0.4 0.2 0.8 0.7 z" fill="#11171c"/><path d="M 474 175.8 c -0.1 0 -0.2 -0.3 -0.2 -0.7 c 0.2 0.1 0.2 0.2 0.2 0.7 z" fill="#11171c"/><path d="M 471.9 167.8 c -0.2 0.1 -0.4 -0.1 -0.7 -0.6 c 0.2 -0.1 0.4 0.1 0.7 0.6 z" fill="#11171c"/><path d="M 470.9 166.7 c -0.2 0.1 -0.5 -0.1 -0.8 -0.6 c 0.2 -0.1 0.5 0.1 0.8 0.6 z" fill="#11171c"/><path d="M 248.8 94 c 3.8 0.1 7.2 0.4 11.1 0.4 c 11.5 1.6 22.6 3 33.5 5.4 c 7 1.6 13.7 4.7 21 7.2 c 7.4 3.4 14.5 6.8 21.7 10.5 c 12.4 9.3 24 19 34.2 30.4 c 3.3 3.7 6.4 7.5 9.7 11.2 c 0 0 0 0 0 0.3 c 0.3 0.8 0.6 1.4 1 2.1 c 0.3 0.4 0.5 0.6 0.8 1 c 0.4 0.8 0.7 1.3 1.2 2 c 0.3 0.4 0.5 0.5 0.8 1 c 0.4 0.8 0.7 1.3 1.2 2 c 0.3 0.4 0.5 0.5 0.9 1 c 0.4 0.7 0.8 1.2 1.1 1.6 c 0 0 0.1 0.1 0 0.4 c 0.6 1.1 1.3 1.9 2 3.1 c 0.9 2.1 1.8 3.9 2.8 6 c 0.8 0.7 1.5 1.1 2.2 1.9 c 0.3 1.3 0.5 2.3 0.8 3.2 c 6.3 17.6 13.2 35.1 12.2 54.8 c 0.4 3 0.8 5.6 1.2 8.2 c -0.4 7.4 -0.4 14.9 -1.4 22.2 c -0.4 2.8 -2.7 5.4 -4.6 7.8 c -0.4 0.5 -2.9 0.4 -3.3 -0.2 c -1.3 -1.7 -2.5 -3.8 -2.7 -5.8 c -0.3 -2.9 0.5 -5.9 0.8 -9.7 c 0 -9.6 0 -18.3 0 -27 c -0.3 -2.7 -0.7 -5.4 -1.1 -8.9 c -2.2 -9.3 -4.3 -17.8 -6.6 -26.2 c -0.4 -1.4 -2.1 -2.5 -3.1 -4.1 c 0.1 -1.6 0.5 -3 0 -4 c -2.2 -4.7 -4.5 -9.2 -6.9 -13.8 c -8.4 -15.4 -20.8 -27.6 -33.4 -39.5 c -2.6 -2.5 -5.8 -4.3 -8.8 -6.7 c -0.5 -0.4 -0.8 -0.6 -1.4 -0.8 c -0.7 -0.4 -1.1 -0.7 -1.8 -1.2 c -7.1 -4.1 -13.7 -8.7 -21 -11.5 c -10 -3.8 -20.6 -6.2 -31.2 -9.5 c -13 -4.1 -26.1 -3.4 -39.1 -3.5 c -1.5 0 -3.1 0.7 -5 1 c -0.9 -0.1 -1.4 -0.3 -1.9 -0.2 c -6.6 1 -13.3 2 -19.9 3 c -0.3 4.4 -0.6 8.8 -0.9 13.2 c 0 0.2 0 0.3 0 0.5 c -0.2 2.7 1.1 3.7 3.6 3.4 c 3.8 -0.5 7.7 -1.2 11.9 -1.8 c 2.4 -0.2 4.3 -0.4 6.3 -0.3 c 13.4 0.3 26.8 0.7 40.5 1.3 c 10.7 3.7 21.1 7 31.5 10.5 c 2.8 0.9 5.5 2.2 8.3 3.7 c 3.6 2.5 7.4 4.3 10.3 7.1 c 8.9 8.4 17.6 16.9 26 25.8 c 3.6 3.8 6.2 8.7 9.4 13.2 c -1.3 0.7 -1.8 1.1 -2.5 1.3 c -3.1 0.7 -7.5 0.3 -8.8 2.2 c -1.6 2.3 -0.5 6.4 -0.6 9.7 c 0 1 -0.2 2.1 0.1 3 c 0.4 1.2 1.3 2.3 2.4 3.4 c 5.6 0 10.8 -0.1 15.9 0.1 c 1.5 0.1 4 1.2 4.3 2.2 c 2 9.5 3.6 19.1 5.3 29.1 c 0.3 1.8 0.6 3.2 1 5.1 c 0.4 4.5 0.7 8.5 1 12.5 c -1.3 8.6 -2.6 17.3 -4 25.9 c -0.2 1 0 2.2 -0.6 2.9 c -1.6 1.9 -3.4 3.5 -5.1 5.2 c -1.4 -2.1 -3.9 -4.1 -4.1 -6.4 c -0.6 -5.4 -0.2 -11 0.2 -17.2 c 0.5 -10.3 0.6 -19.9 0.6 -29.5 c 0 -0.6 -0.6 -1.3 -1 -2.2 c 0 -0.2 0 -0.7 0 -1.1 c -0.3 -5.2 -0.7 -9.9 -1.5 -14.6 c -5.1 0 -9.7 0 -14.6 -0.4 c -0.5 0.4 -0.9 1 -0.9 1.7 c -0.1 28.6 -0.1 57.1 -0.1 85.7 c 0 1 0.6 2 1 3 h 13.4 c 2.5 3.6 0.5 6.5 -1.6 9.3 c -6.4 8.6 -12.1 17.9 -19.5 25.5 c -6.9 7.2 -15.5 12.7 -23.7 18.7 c -4.2 3.1 -6.4 1.7 -6.6 -3.4 c -0.2 -3.1 -0.4 -6.3 -1 -10.2 c -31.9 -0.8 -63.4 -0.9 -94.9 -0.9 c -0.7 0 -1.3 0.6 -2 0.9 c 0 4.5 0 9 -0.1 13.5 c -0.1 2.5 0.7 3.5 3.4 3.6 c 12.8 0.6 25.7 1.6 38.5 1.9 c 5.7 0.2 11.5 -1.1 17.2 -1.2 c 2.1 0 4.7 1 6.1 2.5 c 2.5 2.7 0.7 7.2 -3.2 7.8 c -5.8 0.9 -11.6 1 -17.7 1.7 c -2.9 0.2 -5.6 0.3 -9 0.3 c -0.9 0 -1.1 0 -1.3 0 c -11.3 -0.7 -22.7 -1.3 -34.7 -2.2 c -1.2 -0.4 -1.8 -0.6 -2.3 -0.7 c -1.1 -0.3 -2.2 -0.6 -4 -1 c -1.1 -0.1 -1.6 0 -2 0 c 0 0 -0.5 0 -0.8 -0.2 c -0.5 -0.5 -0.8 -0.7 -1.1 -0.7 c 0 0 0 -0.1 0 -0.3 c 0 -0.2 -0.1 -0.7 0 -1.2 c 0 -3.3 0.1 -6.1 0 -9 c -0.2 -4.9 -0.6 -9.7 -1.4 -14.6 c -3.7 -0.1 -7 0.1 -10.3 -0.2 c -4.9 -0.5 -5 1.7 -3.3 5.6 c -0.3 3.1 -0.7 5.8 -1 8.5 c 0 0 -0.5 0 -0.9 0.1 c -0.7 0.4 -0.9 0.6 -1.2 0.8 c 0 0 -0.4 0 -0.9 0 c -1 0 -1.5 0 -1.9 0 c -1.1 -0.6 -2.2 -1.2 -3.7 -2.2 c -0.7 -0.5 -1 -0.7 -1.3 -0.8 c 0 0 -0.5 0 -0.9 -0.3 c -7.2 -5.8 -14 -11.3 -20.8 -17.1 c -1.1 -1.4 -2.1 -2.5 -3.1 -3.6 c 0 0 -0.1 0 -0.2 -0.3 c -0.3 -0.5 -0.6 -0.7 -1.2 -0.9 c -0.7 -0.7 -1.2 -1.2 -1.8 -2.1 c -3.9 -5.7 -8.2 -10.7 -11.6 -16.3 c -6.3 -10.2 -4.9 -12.3 7.2 -12.4 c 0.5 0 1 0 1.9 0 c 1.1 -1.3 2.4 -2.6 2.4 -3.9 c 0.1 -27.4 0.1 -54.8 0 -82.3 c 0 -1.2 -0.1 -2.3 -0.1 -3.5 c -0.6 0.2 -1.2 0.4 -2.3 0.6 c -5.4 0 -10.4 0 -15.6 -0.4 c -0.6 6.5 -1 13.4 -1.4 20.2 c -3 0 -5.7 0 -8.6 -0.5 c 0 -19.9 0 -39.4 0 -60.1 c -11.7 19.3 -16 39.6 -18.5 60.6 c -3.7 0.3 -7 0.6 -10.3 0.4 c 0.3 -1.5 0.6 -2.6 0.8 -3.7 c 1.3 -8.3 2.1 -16.6 3.9 -24.7 c 1.9 -8.7 4.7 -17.1 7.4 -25.8 c 1.2 -1.7 2.1 -3.3 3 -4.8 c 3.5 -6.2 7 -12.5 10.5 -18.7 c 2.8 -4.9 7.4 -2 11.2 -2.2 c 0.5 0 1.3 4 1.9 6.1 c 0.1 0.5 0.1 1 -0.3 1.7 c -0.5 12.9 -0.5 25.6 -0.5 38.4 c 0 0.5 0.6 1 1.2 1.5 c 0.8 0 1.2 0 1.7 0 c 0 0 0 0 0.2 0.4 c 8.4 0.5 16.6 0.6 24.8 1.1 c 0 42 0 83.5 0.1 125 c 0 1.5 0.6 3 1.2 4.6 c 1.1 0.4 2 0.6 3.3 0.8 c 57.5 0 114.5 0 171.5 0 c 1.6 0 3.3 -0.6 5.3 -1.2 c 0.1 -3.8 -0.1 -7.4 -0.3 -11.2 c 0 -0.2 -0.1 -0.4 0.3 -0.6 c 0.8 -4.5 1.5 -8.7 1.6 -13 c 0.1 -3.3 -0.5 -6.6 -1.1 -10 c -0.4 -0.8 -0.6 -1.5 -0.8 -2.3 c 0 -0.2 -0.1 -0.5 0.3 -0.7 c 0.5 -8 0.6 -15.8 0.6 -23.6 c 0 -1.5 -0.6 -3 -0.9 -4.6 c 0 -0.1 0.1 -0.4 0 -0.9 c 0 -12.4 0 -24.3 0 -36.3 c 0 -1.5 -0.7 -3 -1.5 -4.5 c -5.2 0 -9.8 0 -14.9 0.3 c -0.5 2.1 -0.7 3.9 -0.7 5.7 c 0 28 0 56.1 0 84.3 c 0 0.2 0 0.7 -0.4 0.7 c -48.7 0 -96.9 0 -145.7 0 c 0 -15.8 0 -30.9 0.1 -46.5 c 0.1 -48.5 0.1 -96.5 0.1 -144.6 c 0 -1.3 -0.7 -2.6 -1.3 -3.9 c -0.5 0.2 -0.7 0.5 -1.1 0.8 c -5.1 3.1 -9.9 6.1 -15.1 9.4 c -0.4 17 -0.4 33.8 -0.6 50.9 c -3.3 3 -6.4 4.1 -9 -0.8 c 0.1 -19.4 0.1 -38.4 0.5 -57.5 c 6.6 -4.1 12.6 -8.5 19.1 -11.9 c 5.6 -2.9 11.8 -4.7 17.7 -6.5 c -0.1 14.7 -0.1 28.9 -0.1 43.6 c 2.1 0 3.9 0 5.7 0 c 16.8 0 33.5 -0.1 50.3 0 c 1.7 0 3.4 0.6 5 1.4 c 0 2.8 0 5.1 -0.1 7.9 c -18.8 0.5 -37.4 0.5 -56 0.7 c -1.6 0 -3.3 0.6 -4.9 1.4 c 0 47 0 93.5 0 140.1 c 0 1.5 0.6 3 1.3 4.6 c 3.1 0.1 5.8 -0.1 8.5 -0.1 c 11.5 0 22.9 -0.1 34.4 0 c 5.3 0.1 10.5 0.9 15.8 0.8 c 11.6 -0.1 23.2 -0.8 34.8 -0.8 c 8.5 0 17 0.6 25.5 0.9 c 1.5 0 3.1 -0.6 5 -1.1 c 0.4 -18.4 0.4 -36.6 0.5 -55.2 c 0.1 -33.5 0.1 -66.6 0.1 -99.6 c 0 -1.3 -0.6 -2.6 -1.3 -4 c -7.1 -2.7 -13.8 -5.4 -20.8 -8.4 c -10.8 -2 -21.3 -3.8 -32 -6 c -18.4 -0.5 -36.6 -0.6 -54.8 -1.2 c 0 -11.4 0 -22.4 0.3 -33.5 c 1.8 -0.3 3.2 -0.6 4.7 -0.8 c 11 -1.4 22 -2.7 33.1 -4.1 c 2.1 -0.3 4.2 -0.6 6.7 -1 m 89.7 78 s -0.5 0 -0.6 -0.7 c -4.6 -4.1 -9.2 -8.2 -14.4 -12.7 c -0.2 1.4 -0.5 2.9 -0.5 4.3 c 0 15.1 -0.1 30.2 0 45.4 c 0.1 11 -1.6 9.7 9.8 9.7 c 8.2 0 8.7 -0.6 7.3 -9 c -0.3 -1.5 -0.1 -3 -0.1 -4.5 c 0 -9.3 0 -18.6 -0.1 -27.9 c 0 -1.5 -0.6 -3.1 -1.4 -4.6 m -160.5 103.5 v 40.8 c 0.2 0 0.5 0 0.7 0 c 0 -20.2 0 -40.4 0 -60.6 c -0.2 0 -0.5 0 -0.7 0 c 0 6.3 0 12.5 0 19.8 m 136 18 v 12.7 c 0.2 0 0.5 0 0.7 0 c 0 -8.2 0 -16.3 0 -24.5 c -0.2 0 -0.5 0 -0.7 0 c 0 3.6 0 7.3 0 11.9 m 8 13.9 c 0 -5 0 -9.9 0 -14.9 c -0.2 0 -0.5 0 -0.7 0 v 23.7 c 0.2 0 0.5 0 0.7 0 c 0 -2.6 0 -5.3 0 -8.9 z"/><path d="M 284.7 38.9 c 4.7 1 9.2 2 13.6 3 c 5 1.1 10 2.1 15.4 3.1 c 0.8 0 1.2 0 2 0.3 c 1.7 0.8 3 1.3 4.4 1.7 c 0 0 0.4 0 0.7 0.2 c 0.6 0.4 1 0.6 1.3 0.8 c 5.5 2.1 10.9 4.1 16.7 6.1 c 0.7 0.2 1.1 0.5 2 1.1 c 0.7 0.4 1.1 0.6 1.4 0.8 c 6.4 3.3 12.7 6.6 19.4 10 c 2.1 1.3 4 2.5 5.7 3.8 c 9.1 7.3 18.1 14.6 27.6 22.4 c 1 0.6 1.6 0.7 2.1 0.9 c 2.8 2.8 5.6 5.7 8.7 8.7 c 0.7 1.1 1.2 2 2 3.3 c 0.6 0.6 0.9 0.8 1.3 0.8 c 0 0 0 0.1 0.1 0.3 c 0.3 0.5 0.6 0.7 0.9 0.9 c 11 12.4 20.3 26 28.7 40.7 c 1.1 2.1 1.9 3.9 3 6.3 c 0.7 0.9 1 1.3 1.3 1.7 c 0 0 0 0.1 0 0.4 c 0.3 0.8 0.6 1.3 0.9 1.8 c 0.9 2.1 1.9 4.1 3 6.8 c 0.4 1.2 0.7 1.7 1 2.2 c 1 2.4 2 4.7 3.1 7.7 c 0.3 1.2 0.7 1.7 1 2.2 c 0.6 1.7 1.2 3.5 1.9 5.8 c 0.4 1.5 0.7 2.3 1 3.2 c 0 0 0.1 0.4 0.1 0.9 c 0.3 1 0.7 1.6 1 2.1 c 0.6 2.1 1.2 4.1 1.9 6.9 c 0.5 1.8 0.8 3 1.1 4.1 c 0.7 3 1.4 6 2 9.8 c 0.3 1.9 0.6 3 1 4.1 c 1 11.5 2.9 23 2.9 34.5 c 0.1 18.7 -1.9 37.3 -7.1 55.3 c -2 6.7 -5 13.2 -7.3 19.8 c -1.2 3.5 -2.1 7.1 -3.5 11 c -0.5 0.9 -0.6 1.5 -0.7 2.1 c -4.2 7.8 -7.9 15.9 -12.6 23.4 c -5.9 9.4 -11.9 18.9 -19 27.4 c -6.8 8.2 -14.6 15.6 -22.6 22.6 c -8.5 7.4 -17.2 14.8 -26.8 20.6 c -10.7 6.6 -22.4 11.9 -33.9 17.2 c -7 3.2 -14.4 5.5 -21.8 7.5 c -7.1 2 -14.5 3.1 -22.6 4.5 c -2.2 -1.6 -3.5 -3.2 -4.8 -4.7 c 1.6 -1.1 3.1 -2.5 4.9 -3.2 c 2.1 -0.7 4.5 -0.6 6.7 -1.2 c 8.8 -2.2 17.5 -4.4 26.5 -6.7 c -1.1 -1.2 -1.6 -1.7 -2.1 -2.3 c 4.9 -1.4 10 -2.4 14.5 -4.4 c 17.9 -8.1 34.8 -18 50 -30.6 c 4.8 -4 9.3 -8.4 14.6 -12.8 c 3.1 -2.3 5.7 -4.4 7.9 -6.8 c 1 -1.1 1.4 -2.8 2 -4.2 c 0 0 -0.1 0 0.2 0.3 c 2.4 -2.5 4.5 -5.4 6.6 -8.2 c 4.2 -6.9 8.6 -13.7 12.4 -20.8 c 4.8 -9 10.1 -18 13.3 -27.6 c 4.8 -14 8.4 -28.4 11.6 -42.8 c 1.9 -8.6 2.1 -17.5 3.3 -26.2 c 0.3 2.3 0.3 4.5 0.3 6.6 c 0.2 0 0.5 0 0.7 0 c 0 -9.2 0 -18.4 0 -27.6 c -0.3 0 -0.6 0 -0.8 0 v 8.3 c -0.6 -3.2 -1.5 -6.4 -1.8 -9.6 c -0.6 -6.3 -0.9 -12.5 -1.7 -19.4 c -0.3 -0.6 -0.4 -1 -0.4 -1 c 0 -0.7 0 -1.5 -0.1 -2.9 c -0.3 -1.5 -0.6 -2.3 -1 -3.1 c -0.1 -0.9 -0.3 -1.7 -0.7 -3.1 c -0.3 -1 -0.3 -1.4 -0.3 -1.9 c -0.1 -0.9 -0.3 -1.7 -0.7 -3.1 c -0.3 -0.5 -0.3 -0.9 -0.3 -0.9 c -0.1 -0.9 -0.3 -1.7 -0.6 -3.1 c -0.3 -0.5 -0.3 -0.9 -0.3 -0.9 s -0.1 -0.5 -0.1 -1.1 c -0.6 -1.8 -1.2 -2.9 -1.9 -4.1 c 0 0 0 -0.4 -0.1 -0.8 c 0 -0.6 0 -0.8 -0.1 -1 c -0.6 -1.4 -1.1 -2.9 -1.9 -4.9 c -0.5 -0.8 -0.8 -1 -1.1 -1.2 c -0.7 -2.7 -1.3 -5.4 -2 -8.9 c -1.3 -3.2 -2.8 -5.6 -3.9 -8.2 c -8.8 -19.5 -20.5 -37.1 -35 -53.2 c -0.4 -0.4 -0.7 -0.5 -1 -0.7 c 0 0 0 0 -0.2 -0.3 c -7.8 -7.3 -15.2 -14.7 -23.1 -21.3 c -5.9 -4.9 -12.5 -8.9 -19 -13.5 c -7.7 -4.1 -15.1 -8 -22.6 -12.2 c -0.5 -0.4 -0.8 -0.6 -1.5 -0.7 c -0.7 0 -1.1 0 -1.6 -0.2 c -0.4 -0.4 -0.7 -0.6 -1.2 -0.8 c -0.2 0 -0.6 -0.1 -0.8 -0.3 c -0.8 -0.4 -1.4 -0.5 -2.3 -0.7 c -1 -0.5 -1.8 -0.8 -2.8 -1.3 c -5.5 -1.7 -10.7 -3.2 -16 -4.8 c -0.3 -0.5 -0.6 -0.7 -1.2 -0.7 c -0.8 -0.1 -1.2 -0.1 -1.8 -0.4 c -6.8 -1.7 -13.3 -3.1 -19.9 -4.8 c -2.1 -0.5 -5.5 -1.7 -5.6 -2.7 c -0.2 -3 1 -6.1 1.7 -9.1 c 0.8 0.3 1.5 0.5 2.6 0.8 z"/><path d="M 435 224.1 c 0 1.1 0 2.1 0 3.9 c 0.3 2.2 0.6 3.6 1 5.1 c 0.6 23.6 0 47.1 -7.1 69.8 c -1.9 6 -5 11.7 -7.3 17.5 c -2.3 5.7 -3.6 12 -6.8 17.1 c -8.2 13 -17.1 25.4 -25.8 38 c -1.3 1.8 -3.5 3 -5.9 4.3 c -2.4 -1.9 -4.2 -3.8 -6 -5.6 c 6.1 -8 12.5 -15.6 18.1 -23.9 c 5.5 -8.1 10.8 -16.5 14.8 -25.4 c 6.3 -13.8 11.3 -28.2 13.2 -43.4 c 0.5 -3.7 1.6 -7.3 3.1 -11.4 c 0.4 -10.6 0.1 -20.8 -0.3 -31 c 0 -0.3 -0.6 -0.6 -0.8 -0.9 c 0.1 -0.1 0 -0.3 0 -0.7 c -1.3 -10.3 -1.5 -20.3 -4 -29.9 c -3.8 -14.8 -9.2 -29.1 -17.1 -42.6 c -0.3 -0.5 -0.6 -0.8 -0.9 -1.2 c 0 -0.2 0 -0.5 -0.1 -0.8 c -0.3 -0.5 -0.6 -0.8 -1 -1.3 c -1.4 -2 -2.6 -3.8 -3.9 -5.9 c -1.4 -2.1 -2.7 -3.9 -4.1 -6 c -0.3 -0.8 -0.5 -1.3 -1 -2.1 c -7.2 -8.2 -14.1 -16.2 -21 -24.2 c -1.4 -1.6 -2.8 -3.1 -4.1 -5 c 1.8 -3 3.5 -5.7 5.4 -8.1 c 1.7 1.4 3.1 2.7 4.7 4.1 c 2.1 2.1 3.9 3.9 5.8 6 c 0.4 0.7 0.7 1.2 1 1.7 c 0 0.1 0.1 0.1 0.2 0.3 c 0.2 0.5 0.5 0.6 0.8 0.7 c 0 0.1 0.1 0.1 0.2 0.3 c 0.2 0.5 0.5 0.6 0.8 0.7 c 0 0.1 0.1 0.1 0.2 0.3 c 0.3 0.5 0.5 0.6 0.8 0.7 c 0 0 0.1 0 0.2 0.3 c 0.3 0.5 0.5 0.6 0.9 0.7 c 0 0 0 0 0.1 0.2 c 0.3 0.5 0.6 0.7 1 1.1 c 1 1.1 1.9 1.9 2.8 3 c 0.3 0.8 0.6 1.4 1.1 2.1 c 0.3 0.4 0.6 0.6 1 0.9 c 0.4 0.4 0.7 0.6 1.1 1 c 0.3 0.4 0.5 0.6 0.8 1.1 c 0.4 0.8 0.7 1.3 1.2 2.1 c 1.1 1 2 1.8 2.9 2.9 c 0.4 0.8 0.7 1.3 1.1 2 c 0.3 0.4 0.5 0.6 0.8 1.1 c 0.4 0.8 0.7 1.3 1.1 2 c 0.3 0.4 0.5 0.6 0.8 1 c 0.4 0.8 0.7 1.3 1.2 2 c 0.3 0.4 0.5 0.6 0.9 1 c 0.4 0.8 0.7 1.3 1.2 2.1 c 2.2 4.1 4.4 7.8 6.3 11.7 c 3.2 6.3 6.4 12.7 9.5 19 c 0.6 1.7 1.2 3.5 1.9 5.9 c 0.5 1.1 0.8 1.6 1.1 2.1 c 0.6 2.1 1.1 4.2 1.8 7 c 0.5 1.5 0.8 2.3 1.1 3.1 c 1 4.4 2 8.7 3.1 13.8 c 0.3 1.9 0.6 3 1 4.1 c 0 0.7 0 1.4 0.1 2.9 c 0.3 1.5 0.7 2.3 1 3.1 z"/><path d="M 260 402.8 c 0 -2.3 0 -4.6 0.1 -7.4 c 7.6 -1 15.3 -0.8 22.6 -2.4 c 9.4 -2.1 18.5 -5.4 27.6 -8.6 c 18.7 -6.8 34.9 -17.7 48 -32.4 c 8 -9 14.4 -19.5 21 -29.6 c 3.7 -5.5 6.4 -11.7 9.9 -18.1 c 1.4 -0.2 3.5 -0.4 5.7 -0.7 c 2.5 4.5 1.3 8.6 -0.7 12.7 c -9.1 19 -20.5 36.3 -36.9 50.1 c -11.8 9.9 -24.1 18.6 -38.2 25.1 c -12.1 5.6 -24.6 9.3 -38.4 11.4 c -4.6 -0.2 -8.4 -0.2 -12.2 -0.2 c -2.2 0 -4.4 -0.1 -6.5 -0.2 c -0.7 0 -1.4 0.2 -2.2 0.3 z"/><path fill="#11171c" d="M 394.8 133.1 c -0.3 -0.1 -0.5 -0.3 -0.8 -1 c -0.4 -1 -0.8 -1.5 -1.1 -2 c -0.9 -0.8 -1.7 -1.6 -2.8 -2.9 c -0.4 -0.8 -0.7 -1 -1 -1.1 c 0 0 0 0 -0.1 -0.2 c -0.3 -0.5 -0.5 -0.7 -0.8 -0.7 c 0 0 -0.1 0 -0.2 -0.2 c -0.3 -0.5 -0.5 -0.7 -0.8 -0.7 c 0 0 -0.1 0 -0.2 -0.3 c -0.3 -0.5 -0.5 -0.7 -0.8 -0.7 c 0 0 -0.1 0 -0.2 -0.3 c -0.3 -0.5 -0.5 -0.7 -0.8 -0.7 c 0 0 -0.1 0 -0.1 -0.4 c -0.4 -0.8 -0.7 -1.2 -1.1 -1.7 c -1.9 -1.8 -3.7 -3.6 -5.4 -5.7 c 1.8 -1.5 3.7 -2.4 4.9 -4 c 2.9 -3.8 5.1 -4.1 9.2 -1.6 c 2.3 1.4 5 2.1 7.5 3.1 c 0 0 0 0 0.1 0.3 c 0.4 0.4 0.7 0.5 1 0.7 c 14.3 15.9 26 33.5 34.8 53 c 1.2 2.5 2.6 4.9 3.9 7.8 c -1.8 1.1 -4 1.4 -5.3 2.6 c -3.4 3.2 -4.4 0.8 -5.6 -1.9 c -0.9 -1.9 -2 -3.8 -3.8 -5.3 c -2 4.3 5 8.7 -1.2 12.8 c -3.3 -6 -6.5 -12.4 -9.7 -18.7 c -2 -3.8 -4.1 -7.6 -6.3 -12 c -0.6 -1.1 -0.9 -1.6 -1.3 -2 c -0.3 -0.1 -0.5 -0.3 -0.8 -1 c -0.5 -1 -0.9 -1.5 -1.2 -2 c -0.2 -0.1 -0.5 -0.3 -0.8 -1.1 c -0.5 -1 -0.8 -1.5 -1.2 -2 c -0.3 -0.1 -0.5 -0.3 -0.8 -1.1 c -0.5 -1 -0.8 -1.5 -1.1 -2 c -0.9 -0.8 -1.8 -1.5 -2.9 -2.9 c -0.5 -1.1 -0.9 -1.6 -1.2 -2.1 c -0.3 -0.2 -0.5 -0.4 -0.9 -1 c -0.5 -0.6 -0.8 -0.8 -1.1 -0.9 z"/><path d="M 386.1 196 c 1.1 1.3 2.8 2.3 3.2 3.8 c 2.4 8.4 4.4 16.9 6.6 25.8 c -3.4 3.5 -7.1 6.3 -10 9.8 c -1.4 1.6 -1.4 4.5 -1.9 6.8 c -0.8 3.9 -1.5 7.7 -2.7 11.7 c -0.7 -3.9 -1 -8 -1.1 -12.7 c -0.2 -2.2 -0.7 -3.7 -1.2 -5.2 c -1.7 -9.6 -3.3 -19.2 -5.4 -28.7 c -0.2 -1 -2.7 -2.1 -4.3 -2.2 c -5.1 -0.3 -10.3 -0.1 -15.8 -0.5 c 2.8 -0.8 6 -1.7 9.2 -1.5 c 5.2 0.3 8 -1.2 8.5 -6.9 c 0.4 -4.7 2.4 -5.1 6.9 -2.8 c 2.4 1.2 5.2 1.7 7.9 2.6 z" fill="#0f171b"/><path d="M 351.2 217 c 4.6 0 9.3 0 14.3 0.5 c 0.8 5.2 1.1 9.9 1.5 14.6 c 0 0 0 0.4 -0.1 1.1 c -0.3 10.7 -0.6 20.8 -0.8 30.8 c -0.6 1.8 -1.2 3.5 -1.6 4.7 c -2.5 -0.4 -4.9 -0.7 -7.3 -1.3 c -1.2 -0.3 -2.6 -1 -3.4 -1.9 c -1 -1.2 -1.4 -2.8 -2.4 -4.7 c -0.4 -1.2 -0.3 -2 0 -2.8 c 0.1 -1 -0.1 -2 -0.4 -3.4 c 0 -12.8 0 -25.2 0.1 -37.6 z" fill="#0f171b"/><path d="M 346 409.9 c -9.4 4.5 -18.5 9.9 -28.2 13.3 c -10.3 3.6 -21.3 5.3 -32.6 7.4 c -3.9 -0.1 -3.6 -2.6 -3.1 -4.3 c 0.4 -1.3 2 -2.9 3.2 -3.1 c 3.1 -0.5 6.5 0.2 8.6 -3.1 c 4.2 -1.1 8.6 -2 12.7 -3.5 c 8 -2.9 15.9 -6.2 24.6 -9.5 c 2.4 -0.4 4.3 -0.4 5.8 -1.1 c 8 -3.6 8 -3.6 9 4 z"/><path fill="#a16e1e" d="M 376.6 374.1 c 2.1 1.9 3.9 3.8 6 5.7 c -0.4 1.3 -0.8 2.9 -1.8 3.8 c -5.5 5 -11.2 9.9 -17.2 15.2 c -2.4 -3.1 -4.4 -5.6 -6.4 -8.3 c 6.6 -5.7 12.8 -11.1 19.4 -16.4 z"/><path d="M 408.7 247.6 c -0.9 -2.6 -1.3 -5.2 -1.3 -8.4 c 6.1 -0.9 11.9 -1.2 17.7 -1.5 c 0 0 0.1 0.2 0 0.7 c -0.4 3.5 -0.6 6.5 -0.8 9.5 c -5.1 -0.1 -10.1 -0.2 -15.6 -0.3 z" fill="#9e681a"/><path d="M 317.7 442 c 0.9 0.5 1.3 1 2.5 2.2 c -9.1 2.3 -17.8 4.6 -26.5 6.7 c -2.2 0.5 -4.6 0.4 -6.7 1.2 c -1.8 0.6 -3.3 2.1 -4.9 3.2 c 1.3 1.6 2.7 3.2 4.4 4.8 c -1.7 0 -5.5 0.2 -5.6 0 c -0.4 -3.2 -0.3 -6.5 -0.3 -10.1 c 3.3 0.5 5.6 0.9 9.1 1.4 c -1.4 -1.1 -1.8 -1.5 -2.5 -2 c 10.5 -1.2 20.5 -3.6 30.5 -7.3 z" fill="#dcdcd6"/><path d="M 215.5 347 c 0.2 -0.4 0.9 -0.9 1.6 -0.9 c 31.5 0 63.1 0.1 94.7 0.5 c -31.8 0.4 -63.8 0.4 -96.3 0.4 z" fill="#dcdcd6"/><path d="M 351.2 258 c 0 0.8 -0.1 1.5 -0.1 2.6 c 0 15.4 0 30.4 -0.1 45.9 c -0.4 -0.5 -1 -1.5 -1 -2.5 c 0 -28.6 0 -57.1 0.1 -85.7 c 0 -0.7 0.5 -1.4 0.9 -1.7 c 0.2 12.7 0.1 25.1 0.1 38.3 c 0 1.6 0.1 2.3 0.1 3.1 z" fill="#9e9d99"/><path d="M 346.4 410 c -1.3 -7.7 -1.3 -7.6 -9.3 -4 c -1.5 0.7 -3.4 0.7 -5.5 1 c 2 -1.4 4.4 -2.9 6.8 -4.3 c 0.7 -0.4 1.8 -0.3 2.3 -0.8 c 2.9 -2.9 5 -2.3 7.3 0.9 c 2.3 3.2 1.8 5.3 -1.6 7.3 z" fill="#dcdcd6"/><path d="M 293.5 420 c -1.6 3.3 -5 2.7 -8.2 3.1 c -1.2 0.2 -2.8 1.8 -3.2 3.1 c -0.5 1.7 -0.8 4.2 2.6 4.3 c 0.1 0.4 0.2 0.4 -0.1 0.5 c -0.4 0.4 -0.6 0.7 -0.8 1 c -2.7 0.3 -4.1 -0.7 -3.9 -3.6 c 0.1 -2.3 0 -4.6 0 -7.2 c 4.6 -0.4 8.8 -0.9 13.5 -1.2 z" fill="#dcdcd6"/><path d="M 259.7 403 c 1 -0.3 1.7 -0.5 2.4 -0.5 c 2.2 0 4.4 0.1 6.5 0.2 c 3.8 0 7.6 0 11.7 0.2 c -2.2 0.9 -4.7 1.7 -7.3 2.1 c -4 0.5 -8.1 0.7 -12.6 1 c -0.6 -1 -0.8 -1.9 -0.7 -2.9 z" fill="#e7e6dd"/><path d="M 424.2 248.4 c 0.3 -3.4 0.5 -6.5 0.8 -9.9 c 0.4 -0.1 0.9 0.1 1 0.4 c 0.4 10.2 0.7 20.4 0.6 30.8 c -0.4 -0.9 -0.5 -1.9 -0.5 -3.6 c 0 -0.6 -0.1 -1.1 -0.1 -1.1 c 0.1 -2.1 0.1 -4.1 0.1 -6.9 c -0.3 -0.8 -0.6 -0.9 -0.9 -1 c -0.3 -2.8 -0.6 -5.5 -0.9 -8.7 z" fill="#dcdcd6"/><path d="M 396.6 235.2 c 0.4 8.5 0.4 17.2 0.4 26.3 c -0.3 -1.4 -0.8 -3.2 -0.9 -5.1 c -0.1 -7 0 -14.1 0.5 -21.3 z" fill="#5d6468"/><path d="M 366.3 264 c 0 -10.1 0.3 -20.1 0.6 -30.6 c 0.4 0.2 1 0.8 1 1.5 c 0 9.6 -0.1 19.2 -0.6 29.1 c -0.4 0.2 -0.8 0.1 -1.1 0 z" fill="#dcdcd6"/><path d="M 406.7 382.9 c -0.3 1.6 -0.6 3.3 -1.7 4.4 c -2.2 2.4 -4.8 4.5 -7.6 6.7 c 0.9 -1.8 2.1 -3.7 3.5 -5.4 c 1.7 -2.1 3.6 -3.9 5.8 -5.7 z" fill="#e7e6dd"/><path d="M 454.9 245.4 c -0.1 -3.2 -0.1 -6 -0.1 -8.7 c 0.3 0 0.6 0 0.8 0 v 27.6 c -0.2 0 -0.5 0 -0.7 0 c 0 -2.2 0 -4.3 -0.1 -6.9 c 0 -4.1 0 -7.8 0 -12 z" fill="#e7e6dd"/><path d="M 413.6 375.1 c -1.8 2.9 -3.9 5.7 -6.3 8.3 c 1.8 -3 3.8 -5.6 6.3 -8.3 z" fill="#e7e6dd"/><g fill="#11171c">
        <path d="M 445.1 191.2 c 0.7 0.8 1.3 1.9 1.9 3.4 c -0.7 -0.8 -1.3 -1.9 -1.9 -3.4 z"/>
        <path d="M 436 232.7 c -0.3 -1 -0.7 -2.5 -1 -4.3 c 0.3 1 0.7 2.5 1 4.3 z"/>
        <path d="M 449.8 209.2 c 0.6 0.6 0.9 1.4 1.2 2.5 c -0.5 -0.5 -1 -1.4 -1.2 -2.5 z"/>
        <path d="M 458.9 199.8 c -0.3 -0.8 -0.7 -1.9 -1 -3.4 c 0.3 0.8 0.7 1.9 1 3.4 z"/>
        <path d="M 462 213.7 c -0.4 -0.8 -0.7 -1.9 -1 -3.4 c 0.3 0.8 0.7 1.9 1 3.4 z"/>
        <path d="M 434 217.7 c -0.3 -0.8 -0.7 -1.9 -1 -3.4 c 0.3 0.8 0.7 1.9 1 3.4 z"/>
        <path d="M 429.9 199.8 c -0.3 -0.5 -0.7 -1.3 -1 -2.4 c 0.3 0.5 0.7 1.3 1 2.4 z"/>
        <path d="M 454.9 185.8 c -0.4 -0.5 -0.7 -1.3 -0.9 -2.5 c 0.3 0.5 0.7 1.3 0.9 2.5 z"/>
    </g><path d="M 259.9 486.7 c -0.8 0.1 -1.7 0.1 -2.7 -0.3 c 0.4 -0.3 0.8 -0.3 1.5 -0.3 c 0.6 0.1 0.9 0.2 1.2 0.7 z">
        
        
        
        
        
        
        
        </path><path fill="#11171c" d="M 435 223.7 c -0.3 -0.4 -0.7 -1.2 -1 -2.4 c 0.3 0.4 0.7 1.2 1 2.4 z"/><path d="M 446.3 336.7 c -0.2 -0.5 -0.1 -1.1 0.3 -1.7 c 0.2 0.5 0.1 1.1 -0.3 1.7 z" fill="#b8b8b2"/><path d="M 451.9 176.8 c -0.3 -0.2 -0.6 -0.7 -0.9 -1.6 c 0.3 0.2 0.6 0.7 0.9 1.6 z" fill="#11171c"/><path d="M 442.9 155.6 c -0.3 -0.1 -0.7 -0.5 -1.1 -1.2 c 0.3 0.1 0.7 0.5 1.1 1.2 z" fill="#11171c"/><path d="M 455.9 188.8 c -0.3 -0.2 -0.6 -0.7 -0.9 -1.6 c 0.3 0.2 0.6 0.7 0.9 1.6 z" fill="#11171c"/><path d="M 427 189.7 c -0.3 -0.2 -0.6 -0.7 -1 -1.5 c 0.3 0.2 0.6 0.7 1 1.5 z" fill="#11171c"/><path d="M 448.8 204.1 c 0.2 0.3 0.3 0.7 0.3 1.5 c -0.2 -0.2 -0.3 -0.8 -0.3 -1.5 z" fill="#11171c"/><path d="M 443.9 157.9 c -0.3 -0.2 -0.6 -0.7 -0.9 -1.5 c 0.3 0.2 0.6 0.7 0.9 1.5 z" fill="#11171c"/><path d="M 447.9 166.9 c -0.3 -0.2 -0.6 -0.7 -0.9 -1.6 c 0.3 0.2 0.6 0.7 0.9 1.6 z" fill="#11171c"/><path d="M 450.9 215.1 c 0.2 -0.1 0.2 0.3 0.3 0.6 c -0.1 0 -0.3 -0.2 -0.3 -0.6 z" fill="#11171c"/><path d="M 284.1 431.8 c 0 -0.2 0.1 -0.5 0.6 -0.9 c 0.1 0.2 -0.1 0.5 -0.6 0.9 z"/><path d="M 425.7 265.1 c 0.1 -0.1 0.2 0.4 0.2 0.6 c -0.4 0.1 -0.5 -0.2 -0.2 -0.6 z"/><path d="M 425.1 257.3 c 0.2 -0.1 0.5 0 0.8 0.4 c -0.3 0.2 -0.5 0 -0.8 -0.4 z"/><path fill="#11171c" d="M 447.9 200.1 c 0.2 -0.1 0.2 0.3 0.3 0.6 c -0.1 0 -0.3 -0.2 -0.3 -0.6 z"/><path d="M 446.9 196.1 c 0.2 -0.1 0.2 0.3 0.3 0.6 c -0.1 0 -0.3 -0.2 -0.3 -0.6 z" fill="#11171c"/><path d="M 444.9 189.1 c 0.2 0.1 0.2 0.2 0.2 0.7 c -0.1 0 -0.2 -0.3 -0.2 -0.7 z" fill="#11171c"/><path d="M 442.1 183.1 c 0.2 0 0.4 0.2 0.8 0.7 c -0.2 0 -0.4 -0.2 -0.8 -0.7 z" fill="#11171c"/><path d="M 70.4 367.1 c -0.3 -0.2 -0.3 -0.6 -0.4 -1.1 c -0.3 -0.7 -0.6 -0.9 -0.9 -1.1 c -4.7 -9.4 -9.4 -18.8 -14.1 -28.5 c -3.5 -10.5 -7 -20.7 -10.7 -31.1 c -1.4 -7.7 -2.7 -15.1 -3.8 -22.6 c -0.5 -3.7 -1 -7.5 -1.1 -11.2 c 0 -0.8 1.3 -2.1 2.2 -2.4 c 1.9 -0.5 3.9 -0.4 6.1 -0.9 c 0.3 -0.3 0.7 -0.2 1 0.2 c 1.3 7.6 2 14.7 3.4 21.8 c 1.3 6.7 3.3 13.2 4.9 20.1 c 0 0.8 0 1.2 -0.1 2 c 0.3 1.2 0.6 2 1.2 3.2 c 3.4 8.4 6.6 16.5 9.8 24.9 c 0.3 1.3 0.3 2.4 0.8 3.2 c 6 9.9 12 19.7 18 29.5 c 0.9 0.9 1.7 1.7 2.9 3 c 0.6 1 0.9 1.5 1.2 2 c 0.8 0.8 1.7 1.7 2.8 3 c 0.6 0.9 0.9 1.3 1.3 1.8 c 0 0 0 0.1 0.1 0.4 c 0.3 0.5 0.5 0.7 0.9 0.7 c 0 0 0 0.1 0.2 0.3 c 0.3 0.5 0.6 0.7 0.9 0.8 c 1.1 1.2 2.2 2.4 3.6 4.1 c 1 1.3 1.6 2 2.3 2.7 c 0 0 0 0.1 0.2 0.4 c 0.7 0.8 1.2 1.3 1.7 1.8 c 1.2 1.2 2.3 2.4 4 4 c 1 0.6 1.6 0.7 2.2 0.9 c 7.5 6.1 14.9 12.1 22.4 18.2 c 3.8 3 7.5 6.1 11.5 8.9 c 2.4 1.7 5 3.1 7.7 4.3 c 4.2 1.9 8.6 3.6 13.1 5.7 c 1.1 0.7 1.8 1 2.6 1.3 c 4 1.5 8 2.9 12.2 4.7 c -2.9 1.7 -0.3 2.4 0.7 2.7 c 13.3 3.1 26.7 6 40 9.2 c 1.3 0.3 2.6 1.8 3.1 3.1 c 0.2 0.5 -1.5 2 -2.6 2.8 c -0.7 0.6 -1.7 0.7 -2.6 1.1 c -9.6 -2 -19.3 -3.7 -28.8 -6 c -5.7 -1.4 -11.2 -3.7 -17.1 -6.3 c -4.5 -2.7 -8.7 -4.8 -13 -6.8 c -0.3 -0.1 -1 0.6 -1.5 0.9 c -0.8 -0.2 -1.6 -0.4 -2.6 -1.2 c -5.8 -3.6 -11.4 -6.7 -17 -9.7 c -8 -5.5 -16 -11.1 -24 -16.6 c -1.3 -0.9 -2.8 -1.7 -4.6 -2.9 c -1.5 -1.1 -2.5 -1.8 -3.5 -2.6 c -2.1 -2.2 -4.2 -4.4 -6.8 -7 c -0.6 -0.6 -0.9 -0.8 -1.2 -0.9 c -2.6 -2.5 -5.1 -4.9 -7.8 -8 c -1.2 -1.8 -2.2 -2.9 -3.2 -4 c -1.1 -1.3 -2.2 -2.5 -3.5 -3.9 c -3.9 -5.2 -7.5 -10.3 -11.1 -15.3 c -0.9 -1.2 -1.8 -2.3 -3 -3.6 z"/><path d="M 93.1 270.9 c 0.1 -0.5 0.3 -1.1 1.1 -1.7 c 2 -0.1 3.4 0.1 4.7 -0.2 c 4.5 -0.9 5.7 0.7 6.4 5.3 c 1.2 8.7 3.6 17.3 5.6 26.3 c 1 3 1.9 5.7 3 8.3 c 5.1 12.4 11.1 24.3 20.4 34.5 c 0.7 0.7 1.2 1.2 1.8 2 c 0.3 0.8 0.7 1.4 1.1 2.1 c 0.3 0.4 0.5 0.6 1 0.9 c 0.5 0.4 0.7 0.6 1 0.7 c 0 0 0 0 0.1 0.2 c 0.3 0.5 0.6 0.7 1.1 1.1 c 6.4 5.7 12.6 11.2 18.8 16.7 c 0 0 0 0.2 0.2 0.5 c 0.4 0.5 0.6 0.6 1 0.6 c 0.3 0.1 0.5 0.3 1 1 c 0.9 0.6 1.4 0.8 2 1 c 0.5 0.3 0.9 0.5 1.7 1.1 c 0.7 0.5 1 0.7 1.3 0.9 c 0 0 0.5 0 0.8 0.3 c 1 0.8 1.6 1.2 2.2 1.7 c 5.1 2.7 10.3 5.5 15.7 8.4 c 1 0.3 1.6 0.4 2.3 0.6 c 4 1.7 8 3.4 12.5 5.5 c 1.5 0.8 2.5 1.2 3.5 1.6 c 0 0 0.4 0 0.9 0.3 c 1.4 0.1 2.3 -0.1 3.2 -0.3 c 0 0 0.4 0 0.8 0.2 c 1.3 0.4 2.3 0.6 3.2 0.7 c 3.9 1 7.8 2.1 11.5 3.5 c -0.5 0.5 -0.8 0.6 -1.1 0.8 c -0.1 0.1 -0.2 0.4 -0.2 0.4 c 4.6 2.4 3.5 4.6 -0.2 6.8 c -0.3 0.2 -0.2 0.9 -0.3 1.4 c -15.1 -1.6 -29.4 -5.6 -42.7 -12.9 c -6.5 -3.6 -13.1 -7.1 -20 -11.1 c -0.6 -0.6 -0.9 -0.8 -1.2 -1 c -0.5 -0.2 -1 -0.4 -1.8 -1 c -0.6 -0.6 -0.9 -0.8 -1.1 -1 c -5.1 -4.2 -10.2 -8.4 -15.8 -13.1 c -8.9 -11.6 -17.4 -22.8 -26 -34.3 c -4.1 -9.4 -8.1 -18.5 -12.1 -28 c -1.4 -6.9 -2.8 -13.3 -4.3 -19.8 c -0.8 -3.7 -1.8 -7.3 -2.7 -10.9 z"/><path fill="#11181c" d="M 112.3 329.9 c 8.5 11.2 17 22.4 25.6 33.8 c -1 0.3 -2.2 0.3 -3.3 0.3 c -2.9 -0.1 -3.9 1 -3.1 3.9 c 0.9 3.4 1.7 7 -3.5 8.8 c -3 -1.8 -5.5 -3.7 -7.9 -5.9 c -0.6 -1 -1.1 -1.6 -1.6 -2.3 c -0.5 1.5 -1 3 -1.4 4.4 c 0 0 0 0 0 0 c -1.9 0.5 -3.9 0.8 -5.8 1.5 c -6.1 2.3 -9.5 -0.4 -8.6 -6.9 c 0.1 -0.6 0 -1.2 0 -2 c -2.9 1.5 -5.3 3.4 -8.1 4.2 c -2.6 0.7 -6.4 -2.4 -7.7 3 c -6.1 -9.5 -12.2 -19.3 -18.1 -29.2 c -0.5 -0.8 -0.6 -1.9 -0.5 -3.4 c 6.9 -5.5 6.9 -5.5 12.8 0.5 c 2.2 2.2 3.8 1.2 5.3 -0.8 c 2.1 3.7 3.8 7.3 5.9 10.7 c 6.4 10.4 3.8 8.5 13.3 3.2 c 0.2 -0.1 0.3 -0.6 0.5 -1 c -2 -3.8 -4.1 -7.7 -6 -11.9 c 0.6 -2.4 1.3 -4.5 1.2 -6.6 c -0.3 -3.7 1.5 -5.6 5.2 -5.1 c 1.9 0.3 3.9 0.4 5.9 0.6 z"/><path d="M 135.8 345 c -0.5 -0.5 -1.1 -1 -1.7 -2.1 c -1.5 -6.9 -0.6 -7.9 5.7 -7.9 c 3.4 0 6.8 0 10.2 0 c 0.5 0.6 0.9 1.1 1.8 2 c 0.6 0.6 0.8 0.8 1.2 0.9 c 0 0 0.1 0 0.1 0.4 c 1.1 1.4 2.1 2.5 3.2 3.6 c 6.8 5.5 13.5 11.1 20.5 16.8 c -1.3 7.1 -5.4 9.1 -10.5 4.9 c -4.5 -3.7 -5.1 0.9 -7.2 3 c -6.4 -5.2 -12.6 -10.6 -19.1 -16.6 c -0.5 -0.8 -0.7 -1 -1.1 -1.1 c 0 0 0 0 -0.1 -0.2 c -0.5 -0.4 -0.8 -0.5 -1.1 -0.7 c -0.3 -0.1 -0.5 -0.3 -0.8 -1 c -0.4 -1 -0.8 -1.5 -1.2 -2.1 z" fill="#0f171b"/><path d="M 227 432.1 c -5.8 -0.1 -11.9 0.9 -17.5 -0.4 c -10.5 -2.6 -20.8 -6.2 -30.9 -10 c -8.1 -3.1 -15.7 -7.2 -23.5 -10.9 c -0.6 -0.3 -0.8 -1.3 -1.1 -2.8 c -1.2 -4.4 0.3 -5.4 3.8 -4.6 c 1 0.2 2.1 -0.1 3.1 -0.2 c 1.5 0.5 3.2 0.8 4.6 1.4 c 9.7 4.4 19.2 9 29 13.1 c 3.4 1.4 7.3 1.7 11.1 2.8 c 0.1 0.6 -0.1 0.9 -0.2 1.1 c 0 0.1 0.1 0.4 0.2 0.4 c 4.1 0.7 8.2 1.3 12.3 2.1 c 2.2 0.4 4.9 0.6 6.2 2 c 0.9 1 0 3.8 -0.2 6.1 z"/><path fill="#0f171b" d="M 188 361.3 c 0.3 -3.1 0.7 -5.8 1.4 -8.9 c 4.2 -4.3 9 -3.3 13.7 -2.9 c 0 7.5 0 14.5 0 21.6 c 0 0 0 0.1 0 0.1 c -3.6 0.1 -6.7 -0.1 -8.3 -4.3 c -0.5 -1.3 -2.8 -1.8 -4.1 -2.8 c -0.9 -0.7 -1.7 -1.5 -2.6 -2.7 z"/><path d="M 120.1 371.2 c 2.4 1.8 4.8 3.7 7.5 5.7 c 1.6 1.5 2.9 2.9 4.3 5 c -1.1 5.8 -5.9 3.7 -8.9 5.1 c -2.1 -1.9 -3.9 -4.1 -6.2 -5.7 c -3.3 -2.3 -2.8 -4.3 0.4 -6.9 c 0.6 -0.7 0.9 -1 1.3 -1.4 c 0.7 -0.7 1.1 -1.2 1.5 -1.8 z" fill="#9e681a"/><path d="M 219.3 461.5 c 0.7 -0.7 1.8 -0.9 2.5 -1.5 c 1 -0.8 2.8 -2.3 2.6 -2.8 c -0.6 -1.3 -1.9 -2.8 -3.1 -3.1 c -13.3 -3.2 -26.7 -6.1 -40 -9.2 c -1 -0.2 -3.6 -0.9 -0.3 -2.6 c 5.2 1.2 10.2 3.1 15.4 4.3 c 8 1.7 16.1 3.1 24.2 4.3 c 3.5 0.5 6.4 1.2 6.6 5.3 c 0.3 5.9 0 6.1 -7.8 5.2 z" fill="#dcdcd6"/><path d="M 123.1 387.3 c 2.9 -1.7 7.7 0.4 8.9 -5.1 c 3.4 2.1 6.8 4.7 10.4 7.3 c -2.3 3 -4.2 5.4 -6.4 8.2 c -4.5 -3.6 -8.6 -6.8 -12.8 -10.4 z" fill="#a7711f"/><path d="M 227.1 431.6 c -1.2 0.5 -2.4 0.5 -3.2 0.5 c 0.1 -2.2 1.1 -5.1 0.2 -6.1 c -1.3 -1.4 -4 -1.5 -6.2 -2 c -4.1 -0.8 -8.2 -1.4 -12.3 -2.1 c -0.1 0 -0.2 -0.3 -0.2 -0.4 c 0.1 -0.3 0.3 -0.5 0.5 -1.1 c 6.9 0.5 13.8 1.3 21.2 2.2 c 0 2.8 0 5.7 -0.1 9 z" fill="#dcdcd6"/><path d="M 249.8 400.4 c 0.4 0.7 1.2 2 1.2 3.2 c 0.1 19.2 0.1 38.3 0 57.5 c 0 0.8 -0.3 1.6 -0.8 2.7 c -0.3 -20.8 -0.4 -41.8 -0.4 -63.4 z" fill="#a7711f"/><path d="M 221.1 404.4 c -0.1 -0.9 -0.2 -1.6 0 -1.8 c 3.7 -2.2 4.8 -4.4 0.2 -6.8 c 0 0 0.1 -0.3 0.2 -0.4 c 0.2 -0.2 0.5 -0.2 1.2 -0.4 c 0.8 0 1.3 0 2.3 0 c 0.8 -0.3 1 -0.6 1.2 -0.9 c 0.4 3.5 0.8 7 1.2 11 c -2.6 -0.1 -4.3 -0.2 -6.3 -0.7 z" fill="#dcdcd6"/><path d="M 139.2 432.4 c 5.6 2.7 11.2 5.7 16.8 9.1 c -5.6 -2.7 -11.2 -5.7 -16.8 -9.1 z" fill="#dcdcd6"/><path d="M 158.8 443.4 c 0.4 -0.7 1.1 -1.4 1.4 -1.3 c 4.3 2 8.5 4.1 12.8 6.5 c -4.7 -1.4 -9.4 -3.1 -14.2 -5.2 z" fill="#dcdcd6"/><path d="M 160.6 403 c -0.8 0.1 -1.9 0.4 -2.9 0.2 c -3.5 -0.7 -5 0.2 -3.8 4.3 c -3.8 -0.2 -2 -2.7 -1.5 -4.3 c 1 -3.4 3.4 -2.5 6.1 -1 c 0.8 0.5 1.1 0.6 1.4 0.7 c 0 0 0.4 0.2 0.6 0.2 z" fill="#e7e6dd"/><path d="M 169.1 373.7 c -0.6 -0.1 -1.2 -0.6 -2 -1.4 c 0.5 -1.1 1 -2 1.6 -2.9 c 0.3 0.1 0.7 0.2 1 0.3 c -0.2 1.2 -0.5 2.4 -0.7 4 z" fill="#0f171b"/><path d="M 88 390.3 c 1 0.8 2 1.9 3 3.3 c -1 -0.8 -2 -1.9 -3 -3.3 z" fill="#11181c"/><path d="M 107 410.3 c 1 0.4 2 1.1 3.1 2.2 c -1 -0.4 -2 -1.1 -3.1 -2.2 z" fill="#11181c"/><path d="M 249.6 472.4 c 0.3 0.5 0.4 1.4 0.3 2.4 c -0.3 -0.6 -0.4 -1.4 -0.3 -2.4 z" fill="#a7711f"/><path d="M 202.9 389.7 c -0.9 0 -2 -0.4 -3.1 -1.2 c 0.9 0 2 0.4 3.1 1.2 z" fill="#0f171b"/><path d="M 206.9 389.8 c -0.7 0.4 -1.6 0.6 -2.8 0.5 c 0.7 -0.4 1.6 -0.6 2.8 -0.5 z" fill="#0f171b"/><path d="M 168.2 437.3 c -0.6 -0.1 -1.4 -0.5 -2.1 -1 c 0.7 0.1 1.3 0.5 2.1 1 z" fill="#b8b8b2"/><path d="M 210.8 390.8 c -0.7 0.1 -1.7 -0.1 -2.8 -0.5 c 0.8 -0.1 1.7 0.1 2.8 0.5 z" fill="#0f171b"/><path d="M 102.9 391.6 c -0.7 -0.4 -1.4 -1.1 -2.1 -2.2 c 0.7 0.4 1.4 1.1 2.1 2.2 z" fill="#11181c"/><path d="M 186.8 382.8 c -0.5 0.1 -1.2 0 -1.9 -0.4 c 0.5 -0.1 1.1 0 1.9 0.4 z" fill="#0f171b"/><path d="M 104.8 393.9 c -0.6 -0.2 -1.1 -0.7 -1.7 -1.5 c 0.5 0.2 1.1 0.7 1.7 1.5 z" fill="#11181c"/><path d="M 249 377.4 c 0.2 -0.4 0.4 -0.4 0.8 -0.4 c 0.3 0 0.2 0.5 0.2 1.1 c 0 1 0.1 1.5 0.1 1.9 c 0 0 -0.3 0.1 -0.5 0.2 c -0.3 -0.8 -0.5 -1.6 -0.6 -2.8 z" fill="#5b411f"/><path d="M 183.1 362.2 c 0.3 -0.2 0.8 -0.2 1.6 -0.2 c -0.2 0.2 -0.8 0.3 -1.6 0.2 z" fill="#0f171b"/><path d="M 94.9 382.6 c -0.3 -0.1 -0.7 -0.6 -1 -1.3 c 0.3 0.1 0.7 0.6 1 1.3 z" fill="#11181c"/><path d="M 206.2 373.2 c 0.3 -0.2 0.7 -0.2 1.5 -0.2 c -0.2 0.2 -0.8 0.3 -1.5 0.2 z" fill="#0d1419"/><path d="M 212.2 374.2 c 0.4 -0.1 1 0.1 1.7 0.5 c -0.4 0.1 -0.9 -0.1 -1.7 -0.5 z" fill="#0d1419"/><path d="M 90.9 377.9 c -0.3 -0.2 -0.6 -0.7 -1 -1.5 c 0.3 0.2 0.6 0.7 1 1.5 z" fill="#11181c"/><path d="M 162.9 369.8 c -0.4 0.1 -1 -0.1 -1.7 -0.6 c 0.4 -0.1 1 0.1 1.7 0.6 z" fill="#0f171b"/><path d="M 110.8 398.9 c -0.4 0.1 -1 -0.1 -1.8 -0.4 c 0.4 -0.1 1 0 1.8 0.4 z" fill="#11181c"/><path d="M 250 485 s -0.4 0.1 -0.6 0.1 c -0.2 -0.5 -0.2 -1 0 -1.9 c 0.1 -0.4 0.5 -0.3 0.6 0.1 c 0.1 0.8 0.1 1.3 0.1 1.7 z" fill="#5b411f"/><path d="M 99 402.2 c 0.3 -0.1 0.6 0.1 0.9 0.5 c -0.2 0 -0.5 -0.1 -0.9 -0.5 z" fill="#11181c"/><path d="M 154.1 377.2 c 0.2 0 0.5 0.2 0.8 0.6 c -0.2 0 -0.5 -0.2 -0.8 -0.6 z" fill="#11181c"/><path d="M 226 394.1 c 0 0.2 -0.2 0.5 -0.7 0.7 c -0.1 -0.3 0.1 -0.5 0.7 -0.7 z"/><path fill="#11181c" d="M 157.1 379.2 c 0.2 0 0.5 0.1 0.8 0.6 c -0.3 0.1 -0.5 -0.1 -0.8 -0.6 z"/><path d="M 159.8 402.7 c -0.2 0.1 -0.5 0 -0.9 -0.4 c 0.2 -0.1 0.5 0 0.9 0.4 z"/><path fill="#11181c" d="M 96.9 384.9 c -0.2 0.1 -0.5 -0.1 -0.7 -0.6 c 0.2 -0.1 0.5 0.1 0.7 0.6 z"/><path d="M 95.8 383.8 c -0.2 0.2 -0.5 0 -0.7 -0.5 c 0.2 -0.1 0.5 0 0.7 0.5 z" fill="#11181c"/><path d="M 204.2 372.2 c 0.2 -0.1 0.5 0 0.8 0.5 c -0.2 0.1 -0.5 0 -0.8 -0.5 z" fill="#0d1419"/><path d="M 204 371 s 0 0.4 0 0.7 c -0.3 0.1 -0.6 0 -0.9 -0.4 c -0.1 -0.2 -0.1 -0.2 0.2 -0.2 c 0.4 0 0.6 0 0.8 -0.1 z" fill="#0d1419"/><path d="M 165.9 371.8 c -0.2 0.1 -0.5 -0.1 -0.9 -0.5 c 0.2 -0.1 0.5 0.1 0.9 0.5 z" fill="#0f171b"/><path d="M 159.9 367.8 c -0.2 0.2 -0.5 0.1 -0.8 -0.3 c 0.3 -0.2 0.5 -0.1 0.8 0.3 z" fill="#0f171b"/><path d="M 186.1 361.8 c 0 -0.2 0.2 -0.4 0.7 -0.7 c 0 0.2 -0.2 0.4 -0.7 0.7 z" fill="#0f171b"/><path d="M 178.1 359.2 c 0.2 -0.1 0.5 0.1 0.9 0.4 c -0.2 0.1 -0.5 -0.1 -0.9 -0.4 z" fill="#0f171b"/><path d="M 118.3 373.1 c -0.2 0.3 -0.5 0.6 -0.9 1 c -0.3 -0.1 -0.3 -0.3 -0.3 -0.8 c 0 -0.3 0 -0.3 0.3 -0.3 c 0.5 0 0.8 0.1 1 0.1 z" fill="#11181c"/><path d="M 187.2 108.1 c -5.9 2.3 -12.1 4 -17.7 6.9 c -6.5 3.4 -12.6 7.8 -19.5 12.1 c -0.8 11.5 -1 22.7 -1.5 34 c -4 6.2 -9.4 8.1 -16.3 6.6 c -0.1 -1.1 -0.2 -1.9 -0.2 -2.7 c 0 -0.5 0 -1 -0.1 -1.5 c -0.6 -2.2 -1.4 -6.2 -1.9 -6.1 c -3.8 0.2 -8.4 -2.7 -11.2 2.2 c -3.5 6.2 -7 12.4 -10.5 18.7 c -0.9 1.6 -1.8 3.1 -3 4.5 c -1.3 -0.9 -2.2 -1.8 -3.3 -2.1 c -3.7 -1 -7.4 -1.8 -11.1 -3 c 0.3 -0.8 0.4 -1.3 0.6 -1.7 c 2 -3.4 2 -6 -2 -8 c -4.1 -2 -5.6 0.6 -7.2 3.5 c -0.7 1.3 -1.6 2.5 -2.6 3.9 c -0.4 0.4 -0.6 0.7 -0.7 1.2 c 0 0.2 0.1 0.6 -0.1 0.7 c -0.5 0.4 -0.7 0.7 -0.9 1.2 c 0 0.2 0.1 0.7 -0.3 0.8 c -1.1 2.4 -1.9 4.7 -2.6 7.3 c 0 0.2 0.1 0.6 0.1 0.6 c -1.2 0.5 -2.3 1 -4.2 1.9 c -0.2 -1.4 -0.3 -2.5 -0.5 -3.6 c -0.3 -1.3 -0.5 -3.6 -1 -3.6 c -1.4 -0.2 -3 0.4 -4.4 0.9 c -1.9 0.8 -3.8 1.8 -5.8 2.2 c 6.2 -18.8 14.2 -36.3 25.7 -51.7 c 0.4 1.5 0.7 2.6 1.1 3.7 c 1.5 5 5.3 7.6 10.3 6.1 c 5.3 -1.6 10.9 -3.2 15.5 -6.1 c 3 -1.9 4.4 -6.2 6.8 -9.1 c 2.5 2.4 4.3 2.3 6.5 -0.1 c 3 -3.3 6.5 -6.2 9.8 -9.3 c 2.7 -2.6 5.3 -5.3 8.2 -8.3 c 1.5 -2.1 3 -3.9 4.1 -5.8 c 1.5 -2.7 2.6 -5.5 4.2 -8 c 2.3 3.9 4.7 5.1 9 2.7 c 15.9 -8.8 33.1 -14.4 50.7 -18.8 c 2.4 0.6 4.7 1.3 7.7 2.1 c -2.2 1.5 -4.5 2.8 -6.6 4.4 c -5.6 4.1 -6.4 7.2 -3.3 12.2 c -1.3 0.6 -2.7 0.8 -4.8 1.4 c -0.8 11.5 -0.9 22.7 -1.4 34.1 c -1.4 7.9 -6.2 11.6 -13.6 12.4 c -0.3 -1.1 -0.6 -1.9 -1 -3.1 c 0 -3.9 0 -7.3 0.3 -11 c 0.1 -3.4 -0.1 -6.5 -0.3 -10 c 0 -4.5 0 -8.6 0.2 -12.8 c 0.3 -0.4 0.2 -0.6 -0.3 -1 c -0.3 -0.4 -0.5 -0.6 -0.7 -0.8 z" fill="#2f2e2c"/><path fill="#2f2e2c" d="M 162.9 67 c 9.2 -3.7 18.3 -7.8 27.7 -10.9 c 7.6 -2.4 15.6 -3.5 23.9 -5.2 c 0.4 0.1 0.4 0.4 0.4 0.4 c -6.9 3.9 -5.5 10.6 -6.1 17.4 c -1.7 1 -3.2 1.4 -4.7 1.8 c -16.1 5.1 -32.3 9.9 -47.1 18.4 c -0.4 0.2 -0.7 0.6 -1.3 1.1 c -1.1 0.5 -1.9 0.8 -2.5 0.7 c 1.5 -4 3.4 -6.8 7.6 -7.5 c 1 -0.2 2 -1 3 -1.5 c -0.7 -0.9 -1.3 -2.2 -2.2 -2.8 c -4.5 -2.8 -4.7 -4.3 -0.2 -7.2 c 2 -1.3 3.8 -2.4 1.5 -4.9 z"/><path fill="#312f2c" d="M 207 40.1 c -0.6 0.5 -1.6 1 -2.8 1.2 c 0.7 -0.6 1.6 -0.9 2.8 -1.2 z"/><path fill="#2f2e2c" d="M 215.3 51 c 0.4 -0.4 1.2 -0.7 2.4 -1 c -0.4 0.4 -1.2 0.7 -2.4 1 z"/><path fill="#1c2021" d="M 110.7 300.2 c -1.9 -8.6 -4.3 -17.2 -5.5 -25.9 c -0.6 -4.6 -1.9 -6.3 -6.4 -5.3 c -1.3 0.3 -2.7 0 -4.4 0 c -0.1 -0.6 0.3 -1.6 0.6 -1.5 c 5.9 0.3 11.1 -2 16.5 -4.1 c 2 -0.8 5.1 1 8.5 1.9 c 0 -5.3 0 -10.8 0.3 -16.8 c 0.8 -0.4 1.2 -0.3 1.7 0.2 c 0 3.1 -0.2 5.8 0 8.4 c 0.6 9.1 1.1 18.1 2.2 27.2 c 0.2 1.7 2.6 3.2 3.9 4.7 c 1.6 -1.5 3.4 -2.9 4.7 -4.6 c 0.6 -0.8 0.2 -2.3 0.2 -3.4 c -0.3 -10.9 -0.7 -21.8 -0.6 -32.9 c 5.8 -0.2 11.1 -0.2 16.5 0.2 c 0 16.1 0 31.8 -0.5 47.5 c -2 -1.2 -4.9 -2.3 -5.1 -3.8 c -0.8 -5.4 -3.6 -3.4 -6.3 -2.3 c -2.2 0.9 -4.4 2.3 -6.7 2.9 c -6.4 1.7 -13.5 1.9 -15.8 9.8 c -1.4 -0.8 -2.6 -1.5 -3.8 -2.2 z"/><path d="M 148.8 247.8 c -5.3 0.1 -10.6 0.1 -16.9 0.2 c -3.9 0.1 -6.9 0.1 -9.9 0.2 c -0.4 -0.1 -0.9 -0.2 -1.7 -0.3 c -25.8 0 -51.2 -0.1 -76.7 -0.1 c -2 0 -4 -0.1 -6.4 -0.4 c 1.4 -1.2 3 -2.5 4.9 -3.4 c 3.5 -1.7 8.5 0.2 10.7 -5 c 4.1 -0.8 8.2 -1.2 12.9 -1.4 c 4.2 -0.1 7.7 -0.3 11.5 -0.2 c 5.5 0.3 10.7 0.3 15.9 0.3 c 3.3 -0.3 6.6 -0.5 10.6 -0.5 c 6.2 0.4 11.7 0.5 17.7 0.6 c 3.8 0 7.2 0 11.1 0 c 5.7 0 11 0 16.4 0.4 c 0 3.5 -0.1 6.5 -0.1 9.5 z" fill="#a7711f"/><path d="M 57 310 c -1.7 -6.6 -3.6 -13.1 -4.9 -19.8 c -1.4 -7 -2.1 -14.2 -3.1 -21.7 c 4.8 2.1 9.7 4.6 14.7 7.2 c 3.3 -9.4 3.3 -9.4 11.7 -7.6 c -8.5 1.8 -8.5 1.8 -7.4 10.8 c 0.2 1.8 0.3 3.6 0.7 5.4 c 1.4 7.9 2.9 15.9 4 23.8 c -1 -0.2 -1.7 -0.3 -2.2 -0.7 c -6.4 -5.5 -9.3 -4.9 -13.4 2.7 z" fill="#1c2021"/><path d="M 93 271.2 c 1 3.3 1.9 6.9 2.8 10.6 c 1.5 6.5 2.8 12.9 4 20 c -1.9 0.5 -3.9 1 -5.3 0.4 c -5.9 -2.6 -5.8 -2.7 -7.8 3.1 c -0.2 0.7 -1.1 1.2 -1.9 1.5 c -1.8 -5.9 -3.6 -11.5 -4.7 -17.2 c -1.4 -7.1 -2.2 -14.3 -3.2 -21.4 c 3.8 -0.9 7.1 -0.6 9.9 2.9 c 1.3 1.6 3.8 3.6 6.2 0.3 z" fill="#1c2021"/><path d="M 76.6 268 c 1.3 7.2 2 14.4 3.4 21.4 c 1.1 5.7 2.9 11.4 4.7 17.6 c 0.9 2.7 1.5 4.7 2 6.8 c 0.9 3.7 -1.3 5.5 -4.3 6.7 c -3.2 1.3 -4.6 -0.6 -5.7 -3 c -1.4 -3.2 -2.6 -6.4 -3.8 -9.6 c -1.5 -7.9 -2.9 -15.9 -4.3 -23.8 c -0.3 -1.8 -0.5 -3.6 -0.7 -5.4 c -1 -9 -1 -9 7.7 -10.5 c 0.3 -0.3 0.7 -0.2 0.9 -0.2 z"/><path fill="#222424" d="M 281.7 37.9 c -0.3 3.2 -1.5 6.3 -1.4 9.3 c 0.1 1 3.5 2.2 5.6 2.7 c 6.5 1.6 13.1 3 19.8 5.1 c -0.1 1 -0.3 1.6 -0.7 1.8 c -4 2.5 -6.5 5 -2.9 10.1 c 2.3 3.2 -1.3 2.9 -3.6 3.2 c -6 -0.7 -11.7 -1.5 -17.5 -2.2 c -3.2 6.5 -1.4 10.7 4.6 12.2 c 10.8 2.6 21.5 5.9 32.2 9.3 c -2.3 5.9 -5.5 11.2 -4 17.6 c -6.9 -2.4 -13.5 -5.6 -20.6 -7.2 c -10.8 -2.4 -21.9 -3.8 -33.2 -5.7 c -0.3 -0.1 -0.4 -0.5 -0.4 -0.8 c 2.9 -0.2 5.9 -0.1 8.7 -0.4 c 1.5 -0.2 3.6 -0.8 4.1 -1.9 c 2 -4.6 3.8 -9.4 5.1 -14.2 c 0.7 -2.5 0.6 -5.4 0 -7.9 c -1.3 -5 -0.3 -9.1 3.5 -12.6 c 1.1 -1.1 1.9 -2.6 2.8 -4 c -5.7 -3 -7.2 -6.1 -5.8 -12.1 c 0.3 -1 2.1 -1.7 3.6 -2.4 z"/><path fill="#151b1f" d="M 409.8 106.9 c -0.2 0.1 -0.5 -0.1 -0.7 -0.6 c 0.2 -0.1 0.5 0.1 0.7 0.6 z"/><path fill="#151b1f" d="M 408.8 105.8 c -0.2 0.2 -0.5 0 -0.9 -0.4 c 0.1 -0.1 0.4 0.1 0.9 0.4 z"/><path fill="#11171c" d="M 396.9 92.8 c -0.5 0.2 -1.1 0 -1.8 -0.4 c 0.1 -0.7 0.4 -1.2 0.6 -1.7 c 0.4 0.6 0.8 1.2 1.2 2 z"/><path d="M 250.3 379.8 c -0.2 -0.3 -0.2 -0.7 -0.3 -1.5 c 0.2 0.2 0.3 0.8 0.3 1.5 z" fill="#a7711f"/><path d="M 250.2 484.8 c -0.2 -0.3 -0.2 -0.7 -0.2 -1.5 c 0.1 0.2 0.3 0.8 0.2 1.5 z" fill="#a7711f"/><path d="M 79.9 121.1 c 0.1 0.4 -0.1 1 -0.5 1.9 c -0.1 -0.4 0.1 -1 0.5 -1.9 z" fill="#393530"/><path d="M 341.9 55.8 c -0.2 0.1 -0.5 -0.1 -1 -0.5 c 0.2 -0.1 0.5 0.1 1 0.5 z" fill="#202223"/><path d="M 319.9 46.7 c -1.2 -0.2 -2.5 -0.6 -3.9 -1.4 c 1.2 0.2 2.4 0.6 3.9 1.4 z" fill="#222424"/><path d="M 321.9 47.8 c -0.2 0.1 -0.5 -0.1 -0.9 -0.5 c 0.2 -0.1 0.5 0.1 0.9 0.5 z" fill="#222424"/><path d="M 69.2 365.1 c 0.2 0 0.4 0.2 0.8 0.6 c -0.2 0 -0.4 -0.2 -0.8 -0.6 z" fill="#11181c"/><path d="M 18.1 247.1 c -0.1 -0.1 -0.2 -0.2 -0.3 -0.4 c 0.1 0.1 0.2 0.1 0.3 0.3 c 0.1 0.1 0 0 0 0.1 z" fill="#a7711f"/><path d="M 324 228 c 4.7 0 9.4 0 14.5 0.3 c 0.4 0.5 0.3 0.6 0.2 0.9 c -0.2 0.4 -0.2 0.6 0.2 1.2 c 0 1.5 0 2.6 -0.3 4 c -0.4 1 -0.6 1.6 -0.6 2.3 c 0 21.6 0 43.1 0 64.7 c 0 1.2 0.6 2.5 1.1 3.8 c 0.4 0 0.6 0 0.7 0.3 c -0.1 0.8 -0.2 1.2 -0.6 1.8 c -0.1 2.7 0.1 5.3 0.4 8.2 c 0 1.1 0 1.8 -0.4 2.8 c -0.4 5.7 -0.4 11.3 -0.4 17 c 0 0.2 0.1 0.6 -0.4 0.7 c -57.1 0.1 -113.8 0.1 -170.5 0.1 c -1.6 0 -3.2 0.6 -4.9 1 c -0.8 -0.2 -1.7 -0.4 -2.8 -1.3 c -0.2 -6.6 -0.2 -12.6 0.1 -18.6 c 4.1 6 5.6 6.2 11.9 2.2 c 1 -0.7 2.4 -0.8 3.7 -0.8 c 1.8 0.8 3.4 1.5 5.1 1.5 c 45.6 0 91.2 0 136.8 -0.1 c 1.7 0 3.4 -0.6 5.1 -1 c 0 0 0 -0.4 0.2 -1 c 0.4 -2.3 0.7 -4.2 0.7 -6 c 0 -28 0 -56 0 -84 z" fill="#0f171b"/><path d="M 259 135 c 10.5 1.8 21.1 3.5 31.8 6 c -0.5 2.6 -0.6 5 -1.9 6.5 c -5.9 6.6 -12.4 12.7 -18.1 19.5 c -3.2 3.8 -5.3 8.5 -8.3 12.9 c -18.8 0 -37.2 0 -55.5 -0.5 c 0.5 -1 1 -2.2 1.4 -2.1 c 7.2 0.6 8.2 -5.7 11.2 -9.2 c -1.9 -1.9 -3.4 -3.4 -4.4 -4.9 c 11.6 -0.2 22.8 -0.3 34.4 -0.3 c 3.5 0 6.6 0 9.5 0 c 1.9 -11.6 1.8 -11.7 -9 -11.5 c -0.3 0 -0.7 0 -1.4 -0.1 c -3.9 -0.2 -7.3 -0.3 -10.7 -0.8 c 1.2 -2.2 3 -3.8 3.5 -5.8 c 0.7 -3.1 0.4 -6.4 1 -9.7 c 5.8 0 11.2 0 16.5 0 z" fill="#222424"/><path d="M 386.2 195.7 c -2.8 -0.5 -5.6 -1 -8 -2.2 c -4.5 -2.3 -6.5 -1.9 -6.9 2.8 c -0.5 5.7 -3.3 7.2 -8.5 6.9 c -3.1 -0.2 -6.3 0.7 -9.6 1.5 c -0.8 -0.8 -1.6 -1.8 -2 -3 c -0.3 -0.9 -0.1 -2 -0.1 -3 c 0.1 -3.3 -1 -7.4 0.6 -9.7 c 1.3 -1.9 5.8 -1.5 8.8 -2.2 c 0.6 -0.1 1.2 -0.6 2.5 -1.3 c -3.2 -4.5 -5.8 -9.4 -9.4 -13.2 c -8.4 -8.9 -17.1 -17.4 -26 -25.8 c -2.9 -2.8 -6.8 -4.5 -10 -7.2 c 4.6 -3.8 8.8 -7.6 14.8 -7.7 c 0.6 0 1.2 -1 1.9 -1.6 c 0.4 0.3 0.9 0.6 1.7 1.2 c 0.7 0.5 1.1 0.7 1.4 0.8 c 2.9 2.1 6.1 4 8.7 6.5 c 12.6 11.9 24.9 24.1 33.4 39.5 c 2.5 4.5 4.8 9.1 6.9 13.8 c 0.5 1 0.1 2.5 0 4 z" fill="#161c20"/><path d="M 263 179.8 c 2.6 -4.3 4.7 -9 7.8 -12.8 c 5.7 -6.8 12.2 -12.9 18.1 -19.5 c 1.3 -1.4 1.4 -3.8 2.1 -6.2 c 6.8 2.3 13.5 4.9 20.6 8.2 c 0.3 18.9 0.3 37.2 -0.1 55.6 c -5.1 -4.1 -10.3 -2 -15.4 -1.4 c -0.1 -5.3 0 -10.1 -0.1 -14.9 c -0.1 -2.8 -0.6 -5.6 -1.5 -8.5 c -10.8 -0.2 -21.1 -0.2 -31.5 -0.3 z" fill="#1c2021"/><path d="M 132.3 168 c 6.8 1.2 12.2 -0.8 16.3 -6.5 c 0.7 8 1 15.7 1.3 23.3 c 2.6 4.4 5.7 3.3 9.3 0.1 c 0.7 -7.3 0.8 -14.1 1.4 -20.9 c 1.3 -0.2 2.6 0 3.2 -0.6 c 3.7 -3.9 6.2 -1.9 8.7 1.5 c 0.7 1 2.3 1.4 3.6 2.6 c 0 15.8 0 31.2 -0.5 46.5 c -1.5 -0.6 -2.7 -1.1 -3.8 -1.7 c -4 -2.4 -8 -4.8 -12.2 -7.2 c -0.2 0 -0.7 0.1 -1.1 0 c -8.5 -0.1 -16.5 -0.1 -24.5 -0.1 c 0 0 0 0 0 -0.3 c -0.6 -1.8 -1.1 -3.2 -1.7 -5.1 c 0 -10.8 0 -21.2 0.1 -31.5 z" fill="#282827"/><path d="M 425 237.3 c -5.8 0.7 -11.5 1 -17.7 1.5 c 0.6 -19.1 -6.3 -36.6 -12.5 -54.2 c -0.3 -0.9 -0.5 -1.9 -0.9 -3.6 c -0.8 -1.1 -1.5 -1.5 -2.3 -1.9 c -0.9 -1.8 -1.8 -3.5 -2.7 -6 c -0.7 -1.5 -1.3 -2.3 -2 -3.1 c 0 0 -0.1 0 -0.1 -0.4 c -0.4 -0.8 -0.8 -1.2 -1.1 -1.6 c -0.3 -0.1 -0.5 -0.3 -0.8 -1 c -0.5 -1 -0.9 -1.5 -1.3 -2 c -0.2 -0.1 -0.4 -0.3 -0.7 -1 c -0.5 -1 -0.9 -1.5 -1.3 -2 c -0.2 -0.1 -0.4 -0.3 -0.7 -1 c -0.4 -1 -0.7 -1.5 -1 -2 c 0 0 0 0 0.1 -0.4 c 5.3 -2.8 6.6 -10.2 13.2 -10.9 c 0.2 0.5 0.5 1 0.6 2.2 c -2.8 5.2 -2.2 5.9 4.3 6 c 1.2 1.7 2.4 3.5 3.9 5.8 c 0.5 0.8 0.8 1.1 1 1.3 c 0 0 0 0.3 0.1 0.8 c 0.4 0.7 0.6 0.9 0.9 1.2 c 7.9 13.2 13.3 27.6 17 42.3 c 2.4 9.5 2.7 19.6 4 29.9 z" fill="#0f171b"/><path d="M 314.4 106.9 c -1.9 -6.4 1.4 -11.7 3.9 -17.6 c 0.2 -0.4 0.7 -0.4 0.8 -0.2 c 0.5 0.4 0.8 0.6 1.3 0.8 c 0.2 0 0.6 0 0.7 0.2 c 0.4 0.4 0.7 0.6 1.2 0.8 c 0.2 0 0.7 0 0.8 0.2 c 0.3 0.5 0.6 0.7 1.2 0.8 c 0.2 0 0.7 0 0.8 0.2 c 0.3 0.5 0.6 0.7 1.3 0.8 c 1.6 0.6 3.1 1.8 3.9 1.5 c 2.3 -1 4.6 -2.3 6.4 -4 c 0.7 -0.7 0.6 -3.4 -0.1 -4 c -2.6 -2.1 -5.6 -3.6 -8.7 -5.6 c -0.4 -0.4 -0.7 -0.6 -1 -0.8 c 0 0 -0.1 0 0 -0.4 c -0.4 -2 -0.3 -3.9 -1.2 -5 c -4 -4.6 -1.3 -9.2 -0.5 -13.8 c 0.8 0.3 1.5 0.6 2.4 1.3 c 0.1 1 0.1 1.5 0 2.1 c 0.9 -0.5 1.7 -0.9 2.6 -1.4 c 0 0 0.4 0.1 0.8 0.3 c 0.6 0.4 0.9 0.6 1.2 0.8 c 0.4 0 0.8 0 1.7 0.2 c 0.8 0.4 1.1 0.6 1.5 0.7 c 7.4 3.9 14.8 7.8 22.5 12.3 c -1 3.6 -2.2 6.8 -3.7 9.8 c -0.7 1.5 -1.7 3.2 -3 4.1 c -3 2 -4.2 4.1 -1.6 7.4 c -0.9 1.7 -1.6 3.2 -2.4 4.6 c 2.9 2.5 5.4 4.7 8 7.4 c -1.1 1 -2.3 2.3 -3.2 2.2 c -6.1 -1.1 -11.4 -0.1 -15.8 4.5 c -7.1 -3.4 -14.1 -6.8 -21.6 -10.2 z" fill="#1a1e21"/><path d="M 110.8 300.6 c 1.1 0.3 2.3 1 3.7 1.8 c 2.2 -7.9 9.4 -8.2 15.8 -9.8 c 2.3 -0.6 4.5 -1.9 6.7 -2.9 c 2.8 -1.2 5.5 -3.2 6.3 2.3 c 0.2 1.5 3 2.6 5.2 4.2 c 0.5 2.8 0.4 5.3 0.2 7.9 c -0.4 0.3 -0.5 0.5 -0.9 0.8 c -0.4 0.4 -0.5 0.7 -0.7 1 c -0.5 0 -1 0 -1.5 0 c -12.1 0.1 -13.5 2.2 -7.2 12.4 c 3.4 5.6 7.6 10.7 11.6 16.3 c -3.3 0.3 -6.7 0.3 -10.1 0.3 c -6.3 0 -7.2 1.1 -5.9 7.7 c -9.2 -9.6 -15.1 -21.5 -20.2 -33.9 c -1.1 -2.6 -1.9 -5.3 -3 -8.3 z" fill="#161c20"/><path d="M 336.1 117.4 c 4.2 -4.9 9.6 -5.8 15.7 -4.8 c 0.9 0.2 2.1 -1.2 3.6 -2.1 c 4.4 2.5 8.5 5.3 12.6 8.2 c 1.4 1.6 2.8 3.1 4.1 4.7 c 6.9 8 13.9 15.9 21 24.2 c -6.4 0.9 -7.7 8.3 -13 11.1 c -3.3 -3.4 -6.5 -7.2 -9.8 -10.8 c -10.1 -11.4 -21.8 -21.1 -34.2 -30.4 z" fill="#161c20"/><path d="M 77.3 237.4 c 0.1 -18.6 4.4 -36.1 11 -53 c 0.8 -2 1.4 -4 2.4 -6.3 c 4 0.6 7.7 1.4 11.4 2.4 c 1.1 0.3 2 1.2 3 2.3 c -2.4 8.9 -5.2 17.4 -7.1 26 c -1.8 8.1 -2.6 16.5 -3.9 24.7 c -0.2 1.1 -0.5 2.2 -0.8 3.7 c -5.3 0.4 -10.5 0.4 -16 0.1 z" fill="#292927"/><path d="M 333.9 129.7 c -0.4 0.8 -1 1.8 -1.6 1.8 c -6.1 0.1 -10.2 3.9 -15 7.4 c -3 -1 -5.7 -2.3 -8.5 -3.2 c -10.4 -3.5 -20.8 -6.8 -31.5 -10.9 c -0.4 -1.6 -0.3 -2.8 -0.8 -3.5 c -2.5 -3.8 -1.7 -6.3 2.4 -8.3 c 1.4 -0.7 2.2 -2.7 3.2 -4 c 10.3 3 20.9 5.4 30.9 9.2 c 7.3 2.8 13.9 7.4 21 11.5 z" fill="#202223"/><path d="M 121 237.8 c -5.5 -0.1 -11 -0.2 -16.8 -0.6 c 1.8 -21.3 6 -41.7 17.8 -60.9 c 0 20.7 0 40.2 -0.2 60.2 c -0.5 0.7 -0.7 0.9 -0.8 1.3 z" fill="#252625"/><path d="M 324.1 158.9 c 4.6 4.1 9.2 8.2 13.9 13.1 c 0.3 7.2 0.6 13.5 0.9 20.2 c 0 1.5 0 2.6 -0.2 3.8 c -0.3 0.4 -0.2 0.6 0.2 1.2 c 0 3.9 0 7.3 -0.2 11 c 0.1 5.8 -2.6 7.5 -7.7 6.7 c -2.3 -0.4 -4.6 -0.1 -7 -0.5 c 0 -18.8 0.1 -37.2 0.2 -55.6 z" fill="#161c20"/><path d="M 281.8 108.6 c -0.8 1.7 -1.6 3.6 -3 4.3 c -4.1 2 -5 4.5 -2.4 8.3 c 0.5 0.8 0.4 1.9 0.6 3.3 c -13.4 0 -26.8 -0.4 -40.3 -0.7 c -2 0 -3.9 0.2 -6.2 -0.1 c 1 -0.8 2.3 -1.1 3.5 -1.8 c 1.9 -1.1 4.5 -1.9 5.5 -3.6 c 1.8 -3.3 2.7 -7.2 4 -10.8 c -2.1 -0.6 -3.8 -1.1 -5.5 -1.6 c 1.5 -0.4 3.1 -1 4.6 -1 c 13 0.2 26.1 -0.6 39.1 3.5 z" fill="#252625"/><path d="M 176 167 c -1.2 -0.7 -2.8 -1.1 -3.5 -2.1 c -2.5 -3.4 -4.9 -5.4 -8.7 -1.5 c -0.6 0.6 -1.9 0.4 -3.3 0.2 c -0.5 -10.1 -0.5 -19.8 -0.6 -29.5 c 4.8 -3.1 9.5 -6.1 14.7 -9 c 0.7 0.4 1 0.6 1.2 1.3 c 0 13.8 0 27.2 0 40.6 z" fill="#2f2e2c"/><path d="M 237.7 106.1 c 2.1 0.5 3.8 1 5.9 1.6 c -1.3 3.6 -2.2 7.4 -4 10.8 c -0.9 1.7 -3.5 2.5 -5.5 3.6 c -1.2 0.6 -2.6 1 -3.9 1.9 c -3.9 1 -7.7 1.6 -11.5 2.1 c -2.4 0.3 -3.8 -0.7 -3.6 -3.4 c 0 -0.2 0 -0.3 0 -0.5 c 0.3 -4.4 0.6 -8.8 0.9 -13.2 c 6.6 -1 13.3 -2 19.9 -3 c 0.5 -0.1 1 0.1 1.9 0.2 z" fill="#2a2a28"/><path d="M 148.8 237.9 c -5.3 0 -10.6 0 -16.3 -0.4 c -0.4 -7.2 -0.4 -13.8 -0.3 -20.5 c 5 0 9.9 0 15.7 0.3 c 0.9 7 0.9 13.8 0.9 20.6 z" fill="#252625"/><path d="M 322.6 319 c -1.2 0.3 -3 0.9 -4.7 0.9 c -45.6 0.1 -91.2 0.1 -136.8 0.1 c -1.7 0 -3.3 -0.7 -5 -2 c -0.1 -9.9 -0.1 -18.9 -0.1 -28.4 c 0.1 -5.8 0.2 -11.2 0.4 -16.6 c 0.2 0 0.5 0 0.5 0 v 46 c 48.8 0 97 0 145.7 0 z" fill="#5d6468"/><path d="M 163.6 337 c 1.2 -0.4 2.8 -1 4.4 -1 c 56.7 0 113.4 0 170.8 0 c 0.9 0 1.1 0 1.3 0.1 c -1.6 0.3 -3.3 1 -4.9 1 c -57 0.1 -114 0.1 -171.5 0 z" fill="#dcdcd6"/><path d="M 312 307.9 c -1.5 0.3 -3.1 1 -4.6 1 c -8.5 -0.2 -17 -0.9 -25.5 -0.9 c -11.6 0 -23.2 0.7 -34.8 0.8 c -5.3 0.1 -10.5 -0.8 -15.8 -0.8 c -11.5 -0.1 -22.9 0 -34.4 0 c -2.7 0 -5.4 0.1 -8.5 -0.2 c -0.3 -0.6 -0.3 -0.8 0 -1 c 0.6 -0.1 0.8 -0.3 1.1 -0.6 c 0.1 0 0.3 0 0.7 0.1 c 1.5 0.3 2.7 0.6 3.8 0.6 c 39 0 78 0 117.2 0 c 0.2 0 0.7 0 0.7 0.2 c 0.1 0.2 0.1 0.7 0.1 0.7 z" fill="#474a4c"/><path d="M 176.9 272.5 c -0.1 0.5 -0.4 0.5 -0.6 0 c -0.3 -7.1 -0.3 -13.8 -0.3 -21 c 0 -12.8 0 -25.2 -0.1 -37.5 c 0 -15.4 0.1 -30.7 0.1 -46.5 c 0 -13.8 0 -27.2 -0.1 -41.4 c 0 -1.2 0 -1.7 0 -2.1 c 0.4 1.3 1 2.6 1 4 c 0 48 0 96.1 -0.1 144.6 z" fill="#70706b"/><path d="M 188.1 306.9 c 0 0.2 0 0.4 -0.1 0.8 c -0.4 -1.2 -1 -2.7 -1 -4.2 c -0.1 -46.5 -0.1 -93.1 0.2 -140 c 0.5 -0.4 0.7 -0.3 0.9 -0.1 c 0 0.2 0.1 0.7 0 0.9 c 0 0.2 0 0.6 -0.1 1.1 c 0 3.5 0 6.6 0 10.2 c 0 21.5 0 42.5 0 63.9 c 0 17.1 0 33.8 0 50.9 c 0 5.2 0 9.9 0 14.9 c 0 0.7 0 1.1 0.1 1.5 z" fill="#70706b"/><path d="M 338.9 196.1 c 0 -1.1 0.1 -2.2 0.1 -4.2 c 0 -7.2 0 -13.5 0 -19.9 c 0.3 1.5 1 3 1 4.6 c 0.1 9.3 0 18.6 0.1 27.9 c 0 1.5 -0.1 3 0.1 4.5 c 1.4 8.4 1 9 -7.3 9 c -11.4 0 -9.8 1.3 -9.8 -9.7 c -0.1 -15.1 0 -30.2 0 -45.4 c 0 -1.4 0.3 -2.9 0.8 -4.1 c 0.2 18.6 0.2 36.9 0.4 56.1 c 5 0.8 9.6 0.8 14.7 0.8 c 0 -2.7 0 -5.1 0 -7.6 c 0 -3.4 0 -6.8 0 -10.9 c 0 -0.7 -0.1 -1.1 -0.1 -1.1 z" fill="#474a4c"/><path d="M 249.2 151.4 c 0.3 0 0.7 0 1 0 c 10.7 -0.2 10.8 -0.1 9 11.5 c -2.9 0 -6 0 -9.6 -0.3 c -0.8 -0.7 -1.1 -1.1 -1.4 -1.6 c -0.1 -2.4 -0.1 -4.7 0.1 -7.6 c 0.5 -1 0.7 -1.5 0.9 -1.9 z" fill="#a16e1e"/><path d="M 158.9 205.2 s 0.4 -0.1 0.7 0.4 c 0.4 11.8 0.5 23.1 0.5 34.8 c 0 14.5 0 28.6 0 43.2 c 0 11.5 0 22.5 0 33.5 c 0 6 0 12 -0.1 18.5 c -0.4 -1 -1 -2.5 -1 -4 c -0.1 -41.5 -0.1 -83 -0.1 -125.2 c 0 -0.7 0 -1.1 0 -1.1 z" fill="#b8b8b2"/><path d="M 248.7 151.3 c 0.2 0.6 0 1 -0.4 1.6 c -1.9 -0.2 -3.6 -0.8 -5.3 -0.8 c -16.8 -0.1 -33.5 0 -50.3 0 c -1.8 0 -3.6 0 -5.7 0 c 0 -14.7 0 -28.9 0.1 -43.6 c 0.3 -0.3 0.5 -0.1 0.8 0.6 c 0.1 0.4 0.2 0.8 0.2 0.8 c -0.1 4.1 -0.1 8.1 -0.1 13.1 c 0 3.9 0.1 6.9 0.1 9.9 c 0 3.4 -0.1 6.8 -0.1 11 c 0 1.6 0.1 2.3 0 3.4 c 0 1.1 0 1.9 0.1 2.9 c 0.2 0.5 0.5 0.7 1.3 0.6 c 16.5 0 32.6 0 48.6 0 c 3.4 0.1 6.8 0.2 10.7 0.4 z" fill="#70706b"/><path d="M 311.9 205 c 0 -18.4 0 -36.7 0.1 -55.5 c 0.4 0.8 1 2.1 1 3.4 c 0 33 0 66.1 -0.2 99.6 c -0.2 0.5 -0.5 0.5 -0.6 0 c -0.1 -16.1 -0.2 -31.8 -0.3 -47.5 z" fill="#cac8be"/><path d="M 338.9 305 c -0.3 -1.2 -0.9 -2.5 -0.9 -3.7 c -0.1 -21.6 0 -43.1 0 -64.7 c 0 -0.6 0.2 -1.3 0.6 -1.8 c 0.3 9.9 0.3 19.6 0.4 29.4 c 0 1.7 0.7 3.4 1 5.1 c 0 0 0 0.3 -0.1 0.9 c -0.1 9.7 0 18.8 0 27.9 c 0 0 0.1 0.3 -0.2 0.7 c -0.5 2.3 -0.7 4.2 -0.8 6.1 z" fill="#0b1012"/><path d="M 148.9 238.3 c -0.1 -7.3 -0.1 -14.1 -0.5 -21.1 c 0.2 -0.4 0.8 -0.6 1.4 -0.8 c 0 1.2 0.1 2.3 0.1 3.5 c 0 27.4 0.1 54.8 0 82.3 c 0 1.3 -1.3 2.6 -2.4 3.9 c -0.3 -0.4 -0.2 -0.7 0.5 -1.1 c 0.9 -0.3 1 -0.5 0.8 -0.9 c 0 -2.5 0.1 -5 0.1 -7.9 c 0 -16.1 0 -31.7 0 -47.8 c 0 -3.5 0.1 -6.5 0 -9.9 z" fill="#cac8be"/><path d="M 323.7 228.3 c 0.3 27.7 0.3 55.7 0.3 83.7 c 0 1.8 -0.3 3.6 -0.7 5.7 c -0.3 -27.7 -0.3 -55.7 -0.3 -83.8 c 0 -1.8 0.2 -3.6 0.7 -5.7 z" fill="#393530"/><path d="M 247.9 161.4 c 0.5 0 0.8 0.4 1.2 1.1 c -11.1 0.4 -22.3 0.5 -34.3 0.6 c -9.5 0 -18.1 0.1 -26.6 0.1 c -0.2 0 -0.4 -0.1 -0.8 -0.2 c 1.4 -0.4 3 -1 4.6 -1 c 18.6 -0.1 37.2 -0.2 56 -0.7 z" fill="#cac8be"/><path d="M 178 275 c 0 -6.8 0 -13 0 -19.3 c 0.2 0 0.5 0 0.7 0 v 60.6 c -0.2 0 -0.5 0 -0.7 0 c 0 -13.6 0 -27.2 0 -41.3 z" fill="#e7e6dd"/><path d="M 149.9 184.4 c -0.3 -7.2 -0.6 -14.8 -1 -22.9 c 0.1 -11.7 0.2 -22.9 0.8 -34.3 c 0.3 18.8 0.3 37.7 0.2 57.2 z" fill="#b8b8b2"/><path d="M 312.2 253 s 0.3 0 0.5 0 c 0.1 18.2 0.1 36.4 -0.3 54.8 c -0.4 0.2 -0.4 -0.3 -0.4 -0.8 c 0 -0.5 -0.1 -0.9 0 -1.4 c 0 -15.5 0 -30.5 0 -46 c 0.1 -2.5 0.2 -4.5 0.3 -6.6 z" fill="#b8b8b2"/><path d="M 258.8 134.6 c -5.2 0.4 -10.5 0.4 -16.8 0.4 c -11.8 0 -22.7 0.1 -33.5 0 c -1.5 0 -3 -0.6 -4.4 -1 c 0 0 0 -0.1 0 -0.1 c 18.2 0.1 36.4 0.2 54.8 0.7 z" fill="#9e9d99"/><path d="M 159.5 134.2 c 0.4 9.5 0.5 19.2 0.6 29.3 c -0.1 7.2 -0.2 14 -0.7 21 c -0.3 -16.6 -0.3 -33.4 0.1 -50.4 z" fill="#cac8be"/><path d="M 203 349 c -4.6 0.1 -9.5 -0.9 -13.6 3 c -2 -3.4 -2 -5.6 2.9 -5.2 c 3.3 0.3 6.6 0.1 10.3 0.5 c 0.4 0.8 0.4 1.2 0.4 1.7 z" fill="#0d1419"/><path d="M 340.1 268.8 c -0.3 -1.2 -1 -2.9 -1 -4.6 c -0.1 -9.7 -0.1 -19.5 -0.1 -29.7 c 0 -1.6 0 -2.6 0 -4.4 c 0 -0.6 -0.1 -1.1 -0.1 -1.1 c 0 -0.2 0.1 -0.4 0.2 -0.8 c 0.4 1.2 1.1 2.7 1.1 4.3 c 0.1 11.9 0 23.8 0 36.3 z" fill="#474a4c"/><path d="M 132.2 167.6 c 0 10.7 0 21.1 -0.1 32.3 c -0.1 2.3 -0.1 3.6 -0.2 5 c -0.3 -0.5 -0.9 -1 -0.9 -1.5 c 0 -12.7 0.1 -25.5 0.5 -38.4 c 0.5 0.6 0.5 1.4 0.6 2.5 z" fill="#e7e6dd"/><path d="M 339.6 307 c 0.1 -0.4 0.2 -0.9 0.6 -1.8 c 0.6 -1.7 0.7 -2.9 0.9 -4.1 c 0.3 3.3 0.9 6.6 0.8 9.9 c -0.1 4.3 -0.8 8.5 -1.6 12.6 c -0.5 -2 -0.6 -3.7 -0.7 -5.5 c 0.1 -0.8 0.1 -1.6 0.2 -3 c -0.1 -3.1 -0.1 -5.5 -0.2 -8 z" fill="#e7e6dd"/><path d="M 202.9 134 c 0.2 -11.2 0.3 -22.3 0.8 -33.8 c 0.3 10.7 0.3 21.7 0.3 33.2 c 0 0.5 0 0.5 -0.3 0.6 c -0.5 0.1 -0.7 0 -0.9 0 z" fill="#70706b"/><path d="M 132 216.6 c 0.2 7 0.1 13.6 0.1 20.8 c -3.4 0.5 -6.8 0.6 -10.6 0.5 c -0.4 -0.5 -0.2 -0.7 0.3 -0.9 c 3 -0.1 5.8 -0.1 8.8 -0.1 c 0.4 -6.8 0.8 -13.7 1.4 -20.2 z" fill="#dcdcd6"/><path d="M 340.4 297.9 c -0.5 -8.9 -0.5 -18 -0.5 -27.6 c 0.4 1 1.1 2.5 1.1 4 c 0 7.8 -0.1 15.6 -0.6 23.6 z" fill="#e7e6dd"/><path d="M 314 293 c 0 -4.1 0 -7.8 0 -11.4 c 0.2 0 0.5 0 0.7 0 v 24.5 c -0.2 0 -0.5 0 -0.7 0 c 0 -4.2 0 -8.5 0 -13.2 z" fill="#e7e6dd"/><path d="M 322 307.9 c 0 3.1 0 5.7 0 8.4 c -0.2 0 -0.5 0 -0.7 0 c 0 -7.9 0 -15.8 0 -23.7 c 0.2 0 0.5 0 0.7 0 c 0 5 0 9.9 0 15.4 z" fill="#e7e6dd"/><path d="M 158.5 205.1 c 0.5 0.1 0.4 0.5 0.5 0.8 c -8.2 0.1 -16.4 0.1 -24.8 -0.4 c 7.8 -0.4 15.9 -0.4 24.3 -0.3 z" fill="#e7e6dd"/><path d="M 339.2 318.2 c 0.4 1.6 0.5 3.3 0.7 5.5 c 0.1 0.4 0.2 0.7 -0.1 1.2 c -0.5 3.7 -0.7 6.9 -0.9 10.1 c 0 -5.5 0 -11.1 0.4 -16.8 z" fill="#0b1012"/><path d="M 203 349.5 c 0 -0.9 0 -1.3 0 -2.1 c 0.4 4.5 0.7 9.4 1 14.2 c 0.1 2.8 0 5.7 0 9 c -0.2 0.5 -0.3 0.6 -0.8 0.5 c -0.2 -7.1 -0.2 -14.1 -0.2 -21.6 z" fill="#70706b"/><path d="M 338.8 172 c 0.2 6.3 0.2 12.7 0.2 19.5 c -0.3 -5.9 -0.6 -12.2 -0.9 -19 c 0 -0.5 0.5 -0.5 0.7 -0.4 z" fill="#0b1012"/><path d="M 338.9 335.2 c 0.2 -3.4 0.4 -6.6 0.9 -10.2 c 0.5 3.3 0.8 6.9 0.6 10.7 c -0.5 0.2 -0.7 0.2 -1.2 0.1 c -0.3 0 -0.3 -0.5 -0.4 -0.7 z" fill="#474a4c"/><path d="M 367 231.6 c -0.3 -4.2 -0.7 -8.9 -1 -14.1 c 0.4 4.2 0.7 8.9 1 14.1 z" fill="#474a4c"/><path d="M 379 236.4 c 0.5 1.1 1 2.6 1.2 4.4 c -0.6 -1.2 -0.9 -2.6 -1.2 -4.4 z" fill="#0d1419"/><path d="M 340.8 300.9 c 0.1 1.4 0 2.6 -0.6 4 c -0.5 0.2 -0.7 0.2 -1.1 0.2 c -0.1 -1.9 0.1 -3.9 0.6 -6 c 0.5 0.4 0.6 1 1.1 1.9 z" fill="#474a4c"/><path d="M 132.3 205 c -0.3 -1.5 -0.2 -2.8 -0.1 -4.6 c 0.6 1 1.2 2.4 1.7 4.2 c -0.5 0.4 -0.9 0.4 -1.7 0.4 z" fill="#2f2e2c"/><path d="M 156.2 341.6 c -1 -0.8 -2 -1.8 -3.1 -3.2 c 1 0.7 2 1.8 3.1 3.2 z" fill="#161c20"/><path d="M 387 170.4 c 0.7 0.5 1.3 1.2 2 2.4 c -0.7 -0.4 -1.3 -1.3 -2 -2.4 z" fill="#161c20"/><path d="M 391.8 179.5 c 0.6 0.1 1.3 0.5 2.1 1.2 c -0.6 -0.1 -1.3 -0.5 -2.1 -1.2 z" fill="#161c20"/><path d="M 381.8 162.4 c 0.3 0.2 0.7 0.7 1.1 1.5 c -0.4 -0.2 -0.7 -0.7 -1.1 -1.5 z" fill="#161c20"/><path d="M 385.8 168.4 c 0.3 0.1 0.7 0.6 1.1 1.3 c -0.3 -0.1 -0.7 -0.6 -1.1 -1.3 z" fill="#161c20"/><path d="M 383.8 165.4 c 0.3 0.2 0.7 0.7 1.1 1.5 c -0.4 -0.2 -0.7 -0.7 -1.1 -1.5 z" fill="#161c20"/><path d="M 380 159.4 c 0.3 0.2 0.6 0.7 0.9 1.6 c -0.3 -0.2 -0.6 -0.7 -0.9 -1.6 z" fill="#161c20"/><path d="M 175.7 124.1 c 0.2 0.4 0.2 0.8 0.2 1.6 c -0.3 0.1 -0.5 -0.1 -0.8 -0.6 c 0 -0.5 0.2 -0.8 0.7 -1 z" fill="#1a1e21"/><path d="M 337.1 131.7 c -0.2 0.1 -0.5 -0.1 -1 -0.5 c 0.2 -0.1 0.5 0.1 1 0.5 z" fill="#202223"/><path d="M 152.9 337.7 c -0.2 0.1 -0.5 0 -0.8 -0.5 c 0.2 -0.1 0.5 0 0.8 0.5 z" fill="#161c20"/><path d="M 349.5 98.2 c -2.7 -3 -1.5 -5.1 1.5 -7.1 c 1.3 -0.9 2.2 -2.6 3 -4.1 c 1.5 -3 2.7 -6.2 4 -9.7 c 6.3 4 12.9 8.1 18.7 13 c 8 6.7 15.4 14 23.1 21.3 c -2.4 -0.7 -5.1 -1.4 -7.4 -2.8 c -4.1 -2.6 -6.3 -2.3 -9.2 1.6 c -1.2 1.5 -3.1 2.4 -5.1 3.7 c -1.8 -1.2 -3.2 -2.4 -5.1 -4.1 c -7 -5.6 -13.5 -10.7 -20.2 -15.9 c -1.6 1.9 -2.5 3 -3.5 4.1 z" fill="#151b1f"/><path d="M 324.9 60.6 c -0.5 4.9 -3.2 9.5 0.8 14.1 c 0.9 1.1 0.9 3 0.9 5 c -6.1 -1.5 -11.9 -3.2 -17.6 -5.2 c -3.5 -1.2 -6.7 -2.9 -10.1 -4.4 c 1.9 -0.2 5.5 0.1 3.3 -3.1 c -3.6 -5.2 -1.1 -7.6 2.9 -10.1 c 0.4 -0.2 0.5 -0.8 0.9 -1.6 c 0.5 -0.3 0.9 -0.2 1.8 0 c 0.7 0.5 0.9 0.6 1.2 0.7 c 5.2 1.4 10.4 2.9 15.9 4.6 z" fill="#202223"/><path d="M 330 62.7 c -0.7 0.7 -1.5 1.2 -2.4 1.6 c 0.1 -0.6 0.1 -1.1 0.3 -1.9 c 0.7 -0.2 1.3 -0.1 2.1 0.3 z" fill="#202223"/><path d="M 401.1 112.7 c -0.1 0 -0.4 -0.1 -0.9 -0.5 c 0.2 -0.1 0.4 0.1 0.9 0.5 z" fill="#151b1f"/><path d="M 335.1 64.7 c -0.2 0.1 -0.5 -0.1 -1 -0.5 c 0.2 -0.1 0.5 0.1 1 0.5 z" fill="#202223"/><path d="M 332 63.7 c -0.2 0.1 -0.4 -0.1 -0.9 -0.5 c 0.2 0 0.5 0.1 0.9 0.5 z" fill="#202223"/><path d="M 308.9 55.8 c -0.2 0.1 -0.5 -0.1 -0.8 -0.5 c 0.2 -0.2 0.5 0 0.8 0.5 z" fill="#222424"/><path d="M 349.4 98.5 c 1.1 -1.4 2 -2.5 3.6 -4.4 c 6.7 5.2 13.2 10.3 20 15.6 c -1.5 3 -3.2 5.6 -5 8.6 c -4.1 -2.5 -8.2 -5.3 -12.6 -8.2 c -2.9 -2.3 -5.5 -4.6 -8.3 -7.1 c 0.7 -1.4 1.5 -2.8 2.4 -4.6 z" fill="#a16e1e"/><path d="M 398.1 155.6 c -6.4 0.3 -7 -0.4 -4.2 -5.3 c 1.5 1.5 2.8 3.2 4.2 5.3 z" fill="#161c20"/><path d="M 383.9 120.3 c 0.3 0.1 0.7 0.6 1 1.3 c -0.3 -0.1 -0.7 -0.6 -1 -1.3 z" fill="#151b1f"/><path d="M 402.9 143.4 c 0.3 0.2 0.7 0.7 1 1.5 c -0.3 -0.2 -0.7 -0.7 -1 -1.5 z" fill="#151b1f"/><path d="M 406.8 149.4 c 0.3 0.2 0.7 0.7 1.1 1.5 c -0.3 -0.2 -0.7 -0.7 -1.1 -1.5 z" fill="#151b1f"/><path d="M 404.8 146.4 c 0.3 0.2 0.7 0.7 1.1 1.5 c -0.3 -0.2 -0.7 -0.7 -1.1 -1.5 z" fill="#151b1f"/><path d="M 400.9 140.3 c 0.3 0.2 0.6 0.7 1 1.5 c -0.3 -0.2 -0.6 -0.7 -1 -1.5 z" fill="#151b1f"/><path d="M 396.9 135.4 c 0.3 0.2 0.7 0.7 1 1.5 c -0.3 -0.2 -0.7 -0.7 -1 -1.5 z" fill="#151b1f"/><path d="M 392.9 130.4 c 0.3 0.2 0.7 0.7 1 1.6 c -0.3 -0.2 -0.6 -0.7 -1 -1.6 z" fill="#151b1f"/><path d="M 403 162.8 c -0.2 0 -0.5 -0.2 -0.8 -0.8 c 0.2 0 0.5 0.2 0.8 0.8 z" fill="#161c20"/><path d="M 395 133.3 c 0.1 0 0.4 0.1 0.9 0.5 c -0.2 0 -0.4 -0.2 -0.9 -0.5 z" fill="#151b1f"/><path d="M 389.1 126.3 c 0.2 -0.1 0.5 0.1 0.8 0.6 c -0.2 0.1 -0.5 -0.1 -0.8 -0.6 z" fill="#151b1f"/><path d="M 388.1 125.3 c 0.2 -0.1 0.5 0 0.7 0.5 c -0.2 0.1 -0.5 0 -0.7 -0.5 z" fill="#151b1f"/><path d="M 387.1 124.3 c 0.2 -0.1 0.5 0 0.7 0.5 c -0.2 0.2 -0.5 0 -0.7 -0.5 z" fill="#151b1f"/><path d="M 386.1 123.3 c 0.2 -0.2 0.5 0 0.7 0.5 c -0.2 0.2 -0.5 0 -0.7 -0.5 z" fill="#151b1f"/><path d="M 385.1 122.3 c 0.2 -0.2 0.5 0 0.7 0.4 c -0.2 0.2 -0.5 0.1 -0.7 -0.4 z" fill="#151b1f"/><path d="M 404 164.8 c -0.2 0 -0.5 -0.2 -0.8 -0.7 c 0.2 0 0.5 0.2 0.8 0.7 z" fill="#161c20"/><path d="M 351.5 257.9 c -0.3 -0.7 -0.4 -1.4 -0.4 -2.6 c 0.3 0.6 0.5 1.5 0.4 2.6 z" fill="#0d1419"/><path d="M 72.6 308 c 1.6 3.2 2.9 6.4 4.2 9.6 c 1.1 2.4 2.5 4.3 5.7 3 c 3 -1.2 5.3 -3 4.3 -6.7 c -0.5 -2.1 -1.2 -4.1 -1.7 -6.6 c 0.6 -1 1.4 -1.5 1.6 -2.1 c 2 -5.8 1.9 -5.7 7.8 -3.1 c 1.4 0.6 3.4 0.2 5.3 0 c 4.2 8.9 8.2 18 12.3 27.4 c -1.8 0.1 -3.8 0 -5.7 -0.3 c -3.7 -0.5 -5.5 1.4 -5.2 5.1 c 0.1 2.1 -0.6 4.2 -1.4 6.3 c -1.8 -2.4 -3.1 -4.8 -5.1 -8.4 c -3.1 2.7 -5.8 5 -8.6 7.4 c -1.3 2.2 -2.9 3.3 -5.1 1 c -5.8 -6 -5.8 -6 -12.8 -0.9 c -3.5 -7.9 -6.7 -16 -10.1 -24.8 c -0.5 -1.5 -0.8 -2.3 -1.2 -3.2 c 0 -0.4 0 -0.9 0 -1.6 c 4.2 -7.9 7.1 -8.5 13.4 -3 c 0.5 0.4 1.2 0.5 2.2 0.7 z" fill="#161c20"/><path d="M 56.9 312.3 c 0.4 0.5 0.7 1.3 1 2.5 c -0.4 -0.5 -0.7 -1.3 -1 -2.5 z" fill="#1c2021"/><path d="M 135.9 345.4 c 0.3 0.2 0.7 0.7 1 1.6 c -0.3 -0.2 -0.7 -0.7 -1 -1.6 z" fill="#161c20"/><path d="M 139.1 349.2 c 0.2 -0.1 0.5 0.1 0.8 0.6 c -0.2 0.1 -0.5 -0.1 -0.8 -0.6 z" fill="#161c20"/><path d="M 137.9 348.3 c 0.1 0 0.5 0.1 0.9 0.5 c -0.2 0 -0.4 -0.1 -0.9 -0.5 z" fill="#161c20"/><path d="M 86.4 340 c 2.5 -2.6 5.2 -5 8.3 -7.6 c 2 3.6 3.3 6 4.9 8.7 c 2.3 4.1 4.4 8 6.4 11.8 c -0.2 0.5 -0.3 0.9 -0.5 1 c -9.4 5.2 -6.8 7.1 -13.3 -3.2 c -2.1 -3.3 -3.8 -6.9 -5.9 -10.7 z" fill="#a16e1e"/><path d="M 118.5 373 c -0.5 0.1 -0.7 0.1 -1.2 0 c 0.2 -1.5 0.6 -3 1.1 -4.5 c 0.5 0.6 1.1 1.3 1.6 2.3 c -0.4 0.9 -0.8 1.5 -1.5 2.1 z" fill="#0d141a"/><path d="M 153.2 90.8 c -0.8 1.7 -1.4 3.1 -2.1 4.8 c -1.3 3.1 -2.5 5.9 -4 8.5 c -1.1 2 -2.6 3.7 -4.4 5.6 c -1.8 -1.4 -2.9 -3.2 -4.4 -4.4 c -0.9 -0.7 -3.1 -1.2 -3.7 -0.6 c -6.9 5.9 -13.5 11.9 -20.3 18 c 1.8 2.1 2.9 3.4 3.9 4.6 c -2.1 3.2 -3.6 7.5 -6.5 9.4 c -4.6 2.9 -10.2 4.6 -15.5 6.1 c -4.9 1.4 -8.7 -1.1 -10.3 -6.1 c -0.3 -1.1 -0.7 -2.2 -1.1 -3.7 c 9.7 -11.5 19 -23.1 29.4 -33.7 c 8.9 -9 18.6 -17.3 30 -23.3 c 5.9 -3.1 11.9 -6 18.2 -9.1 c 2.6 2.4 0.8 3.5 -1.2 4.8 c -4.5 2.9 -4.4 4.4 0.2 7.2 c 0.9 0.6 1.5 1.8 2.2 2.8 c -1 0.5 -1.9 1.3 -3 1.5 c -4.2 0.7 -6.2 3.5 -7.6 7.5 z" fill="#33312d"/><path d="M 202.6 134.2 c 0.5 -0.1 0.7 -0.1 1.2 -0.1 c 1.8 0.2 3.2 0.8 4.7 0.9 c 10.9 0.1 21.7 0 33 0.1 c 0.3 3.3 0.6 6.6 0 9.7 c -0.4 2 -2.3 3.6 -3.5 5.8 c -16 0.4 -32.1 0.4 -48.7 0.2 c -0.8 -0.4 -1 -0.6 -1.3 -0.7 c 0 -0.8 0 -1.5 0.2 -2.7 c 0.3 -0.4 0.8 -0.4 0.8 -0.4 c 7.3 -1.1 12.1 -4.9 13.6 -12.8 z" fill="#282827"/><path d="M 118.5 127.6 c -1.3 -1.5 -2.4 -2.7 -4.2 -4.9 c 6.8 -6 13.4 -12.1 20.3 -18 c 0.6 -0.5 2.8 -0.1 3.7 0.6 c 1.5 1.2 2.6 3 4.2 4.7 c -2.4 2.9 -5 5.6 -7.7 8.2 c -3.2 3.1 -6.7 6 -9.8 9.3 c -2.2 2.4 -4 2.5 -6.5 0.1 z" fill="#9e681a"/><path d="M 77.7 179.1 c -0.4 2.2 -1.2 4.5 -2.3 6.9 c 0.5 -2.2 1.2 -4.5 2.3 -6.9 z" fill="#292927"/><path d="M 188.4 132.6 c -0.3 -2.7 -0.3 -5.7 -0.3 -9.1 c 0.2 2.6 0.4 5.7 0.3 9.1 z" fill="#1c2021"/><path d="M 189 146.7 c 0 0.3 -0.5 0.3 -0.7 0.3 c -0.3 -0.7 -0.3 -1.5 -0.3 -2.6 c 0.3 0.4 0.7 1.2 1 2.3 z" fill="#1c2021"/><path d="M 79 177.1 c 0 0.2 -0.2 0.6 -0.7 1 c 0 -0.3 0.2 -0.6 0.7 -1 z" fill="#292927"/><path d="M 188.3 109.8 c -0.1 0.1 -0.2 -0.3 -0.2 -0.6 c 0.4 -0.1 0.5 0.2 0.2 0.6 z" fill="#1c2021"/><path d="M 79.8 175.1 c 0 0.2 -0.1 0.5 -0.5 0.9 c -0.1 -0.2 0.1 -0.4 0.5 -0.9 z" fill="#292927"/><path d="M 157 89.1 c 0 0.5 -0.3 0.7 -0.8 0.9 c 0.1 -0.3 0.3 -0.7 0.8 -0.9 z" fill="#33312d"/><path d="M 122 248.6 c 3 -0.5 6 -0.5 9.5 -0.5 c 0.8 11 1.2 21.9 1.5 32.8 c 0 1.2 0.4 2.7 -0.2 3.4 c -1.3 1.7 -3.1 3.1 -4.7 4.6 c -1.4 -1.6 -3.7 -3 -3.9 -4.7 c -1 -9 -1.6 -18.1 -2.2 -27.2 c -0.2 -2.6 0 -5.3 0 -8.4 z"/><path d="M 298.6 70.1 c 3.7 1.5 7 3.2 10.4 4.4 c 5.7 2 11.5 3.7 17.6 5.6 c 0.3 0 0.3 0 0.4 0.3 c 0.4 0.4 0.8 0.6 1.1 0.7 c 2.9 1.8 5.9 3.3 8.5 5.4 c 0.7 0.6 0.8 3.3 0.1 4 c -1.8 1.7 -4.1 3.1 -6.4 4 c -0.8 0.3 -2.3 -0.9 -4 -1.7 c -0.8 -0.4 -1 -0.6 -1.3 -0.8 c 0 0 -0.5 0 -0.8 -0.3 c -0.6 -0.4 -0.9 -0.6 -1.2 -0.8 c 0 0 -0.4 0 -0.8 -0.3 c -0.6 -0.4 -0.9 -0.6 -1.2 -0.8 c 0 0 -0.4 0 -0.7 -0.3 c -0.7 -0.4 -1 -0.6 -1.3 -0.8 c 0 0 -0.5 0 -0.7 0 c -11 -3 -21.6 -6.3 -32.4 -8.9 c -6.1 -1.5 -7.9 -5.7 -4.6 -12.2 c 5.8 0.8 11.5 1.5 17.5 2.2 z"/><path fill="#161c20" d="M 160.5 317.1 c -0.4 -11.1 -0.4 -22.1 0 -33.6 c 5.4 1.9 10.4 4.2 15.5 6.5 c 0 9 0.1 18 0 27.5 c -1.3 0.9 -2.6 1 -3.6 1.7 c -6.2 4 -7.7 3.8 -11.9 -2.2 z"/><path fill="#0b1012" d="M 339.2 307.2 c 0.4 2.3 0.5 4.7 0.4 7.6 c -0.3 -2.2 -0.5 -4.8 -0.4 -7.6 z"/><path fill="#0b1012" d="M 338.7 229.2 c 0.1 -0.1 0.2 0.3 0.2 0.6 c -0.3 0.1 -0.4 -0.2 -0.2 -0.6 z"/><path fill="#282827" d="M 188.1 163.4 c 8.6 -0.3 17.1 -0.3 26.1 -0.3 c 1.9 1.6 3.4 3.1 5.3 4.9 c -3 3.5 -4 9.8 -11.2 9.2 c -0.4 0 -0.9 1.1 -1.8 2.2 c -1.2 0.9 -1.9 1.3 -2.6 1.9 c 0.1 0.2 0 0.5 -0.3 0.8 c -0.5 11.5 -0.6 22.6 -1.1 33.8 c -1.8 -1.8 -3.1 -3.8 -4.6 -5.5 c -1.1 -1.2 -2.6 -2.1 -4 -3.1 c -0.7 1.1 -1.4 2.3 -2.1 3.4 c -0.9 1.4 -1.9 2.8 -2.8 3.7 c 0 -11.7 0 -23 -0.1 -34.2 c 0 -1.7 -0.5 -3.5 -0.8 -5.2 c 0 -3.1 -0.1 -6.2 0.1 -9.8 c 0.4 -0.8 0.3 -1 0 -1.2 c 0 0 -0.1 -0.4 -0.1 -0.7 z"/><path d="M 204 181.2 c 0.8 -0.4 1.5 -0.9 2.6 -1.4 c 18.7 0 37.1 0 55.9 0 c 10.8 0 21.2 0 31.9 0.4 c 0.4 0.3 0.5 0.8 0 0.8 c -30.5 0 -60.5 0.1 -90.5 0.2 z" fill="#dcdcd6"/><path d="M 312.2 252.5 c 0 2.5 -0.1 4.6 -0.6 7 c -0.9 0.3 -1.8 0.1 -1.8 -0.1 c -0.2 -8.1 -5.4 -5.4 -9.8 -4.5 c -1.3 0.3 -2.6 0.6 -3.9 0.5 c 0 -17.5 0 -34.5 0.1 -51.5 c 5.1 -1 10.2 -3.2 15.4 1 c 0.4 15.7 0.5 31.4 0.6 47.5 z" fill="#151b1f"/><path d="M 296.1 203.5 c 0 17.5 0 34.5 -0.1 52.5 c 0 10.9 0.1 20.8 0 30.7 c 0 1.4 -0.7 2.9 -1.1 3.8 c 0.1 -36.8 0.1 -73.1 0.1 -109.5 c 0 0 -0.1 -0.5 0 -0.7 c 0.4 2.6 0.9 5.4 1 8.2 c 0.2 4.8 0.1 9.7 0.1 14.9 z" fill="#b8b8b2"/><path d="M 160.2 239.9 c -0.1 -11.3 -0.2 -22.6 -0.3 -34.4 c 3.9 1.9 7.9 4.4 11.9 6.7 c 1.1 0.7 2.3 1.1 3.8 1.7 c 0.4 12.4 0.4 24.7 0.1 37.5 c -1.8 -0.4 -3.3 -1 -4.5 -2 c -3.7 -3.1 -7.2 -6.4 -10.9 -9.6 z" fill="#222424"/><path d="M 325.1 92.2 c 0.2 0 0.4 0.1 0.8 0.5 c -0.2 0.1 -0.5 -0.1 -0.8 -0.5 z" fill="#222424"/><path d="M 323.1 91.2 c 0.2 0 0.4 0.1 0.8 0.5 c -0.2 0.1 -0.5 -0.1 -0.8 -0.5 z" fill="#222424"/><path d="M 321.1 90.2 c 0.2 -0.1 0.5 0.1 0.9 0.5 c -0.2 0.1 -0.5 -0.1 -0.9 -0.5 z" fill="#222424"/><path d="M 319.1 89.2 c 0.2 -0.1 0.5 0.1 1 0.5 c -0.2 0.1 -0.5 -0.1 -1 -0.5 z" fill="#222424"/><path d="M 328 80.8 c -0.2 0.1 -0.5 -0.1 -0.9 -0.5 c 0.2 -0.1 0.5 0.1 0.9 0.5 z" fill="#202223"/><path d="M 148.6 304.1 c 0.4 0.3 0.3 0.6 -0.4 0.7 c -0.1 -0.2 0 -0.4 0.4 -0.7 z" fill="#1c2021"/><path d="M 338.7 208.4 c 0.3 2.1 0.3 4.6 0.3 7.3 c -5.1 0 -9.7 0 -14.7 -0.3 c 2 -0.3 4.4 -0.6 6.7 -0.2 c 5.2 0.8 7.9 -0.9 7.7 -6.7 z" fill="#0b1012"/><path d="M 338.7 196.2 c 0.1 -0.1 0.2 0.3 0.1 0.6 c -0.4 0.1 -0.4 -0.2 -0.1 -0.6 z" fill="#0b1012"/><path d="M 160.2 240.3 c 3.7 2.8 7.2 6.1 10.9 9.2 c 1.2 1 2.7 1.7 4.5 2.5 c 0.4 6.7 0.5 13.4 0.6 20.5 c 0 5.8 -0.1 11.2 -0.2 17 c -5.1 -1.9 -10.1 -4.2 -15.4 -6.5 c -0.4 -14.1 -0.4 -28.2 -0.4 -42.7 z" fill="#1c2021"/><path d="M 294.8 291 c 0.4 -1.4 1.1 -2.9 1.1 -4.3 c 0.1 -9.9 0 -19.9 0.1 -30.2 c 1.4 -0.8 2.6 -1.2 3.9 -1.4 c 4.3 -0.9 9.5 -3.7 9.8 4.5 c 0 0.2 0.9 0.3 1.7 0.5 c 0.4 15.1 0.5 30.1 0.3 45.7 c -0.5 0.8 -0.7 1 -0.8 1.3 c -39 0 -78 0 -116.9 0 c -1.2 0 -2.3 -0.3 -3.7 -0.9 c 2.2 -1.7 4.6 -2.9 7 -4 c 4.4 -2 8.6 -4.2 9 -10 c 27.7 0 54.8 0 82 -0.1 c 1.9 0 3.8 -0.7 5.8 -1 c 0.2 0 0.5 0.1 0.5 0.1 z" fill="#11171c"/><path d="M 206 292 c 0 5.8 -4.2 8 -8.6 10 c -2.4 1.1 -4.8 2.4 -7.4 3.9 c -0.2 0.3 -0.4 0.4 -0.7 0.1 c -0.6 -0.5 -0.9 -0.8 -1.2 -1 c 0 -4.7 -0.1 -9.4 0.2 -14.9 c 0.5 -11.2 0.6 -21.7 1.1 -32.2 c 3.5 -4.3 6.4 -2.2 9.3 0.3 c 1.3 1.1 2.8 1.9 4.3 3.3 c 0.1 7 0 13.4 0.1 19.9 c 0.1 3.2 0.6 6.4 0.9 9.6 c 0 0 0 -0.1 0.1 0.2 c 0.7 0.4 1.3 0.6 1.9 0.8 z" fill="#1a1e21"/><path d="M 188 305.3 c 0.3 -0.1 0.6 0.2 1.1 0.7 c 0 0.5 -0.3 0.7 -0.8 0.8 c -0.3 -0.4 -0.3 -0.8 -0.3 -1.5 z" fill="#0b1012"/><path d="M 311.2 307 c -0.1 -0.3 0.1 -0.5 0.5 -0.9 c 0.2 -0.1 0.3 0.3 0.2 0.6 c -0.1 0.2 -0.5 0.3 -0.7 0.3 z" fill="#0b1012"/><path d="M 188.1 175.6 c 0.3 1.3 0.9 3 0.9 4.8 c 0.1 11.2 0 22.5 0.1 34.7 c 0 8.6 0 16.3 -0.2 24 c -0.2 0 -0.6 0 -0.6 0 c 0 -21 -0.1 -42 0 -63.5 z" fill="#11171c"/><path d="M 188.1 239.5 c 0.1 -0.5 0.5 -0.5 0.7 0 c 0.2 6.5 0.2 12.5 0.2 18.5 c -0.1 10.4 -0.3 20.9 -0.7 31.6 c -0.3 -16.4 -0.3 -33 -0.3 -50.1 z" fill="#0b1012"/><path d="M 188.2 164.3 c 0.4 0 0.4 0.2 0.1 0.5 c -0.1 0.1 -0.2 -0.3 -0.1 -0.5 z" fill="#11171c"/><path d="M 188.1 150.3 c 0.2 -0.1 0.5 0 0.8 0.4 c -0.3 0.2 -0.5 0.1 -0.8 -0.4 z" fill="#1c2021"/><path d="M 294.9 290.6 c -0.1 0.5 -0.4 0.4 -1.1 0.4 c -30.4 0 -60.1 0 -89.9 0 c 0 0 0 0.1 0 -0.4 c 0 -36.5 0 -72.6 0.1 -108.6 c 0 0 0.1 -0.4 0 -0.5 c 30 -0.2 60 -0.3 90.5 -0.4 c 0.5 36.4 0.5 72.7 0.4 109.5 m -60.9 -77.9 c 1.7 5.4 3.4 10.9 5 17 c 0.6 1.4 1.2 2.9 1.9 5.1 c 2.6 8.4 5.1 16.9 7.8 25.7 c 1.2 -0.9 1.6 -1.1 1.7 -1.3 c 4.6 -14.7 9.2 -29.4 14.5 -44.5 c 0 -1.1 0 -2.3 0 -3.7 c -9.9 0 -19.7 0 -29.4 0 c -0.5 0 -0.9 0.6 -1.5 1.7 z"/><path fill="#222424" d="M 189.4 257.9 c -0.3 -6 -0.4 -12 -0.4 -18.5 c 0 -8.2 0 -15.9 0 -24 c 1 -1.9 1.9 -3.2 2.8 -4.6 c 0.7 -1.1 1.4 -2.3 2.1 -3.4 c 1.3 1 2.8 1.9 4 3.1 c 1.6 1.7 2.9 3.6 4.7 5.9 c 0.4 15.2 0.4 29.9 0.3 44.5 c -1.4 -0.9 -3 -1.7 -4.3 -2.8 c -3 -2.5 -5.8 -4.5 -9.3 -0.3 z"/><path fill="#70706b" d="M 203 261.5 c 0 -15.2 0 -29.8 0 -45 c 0.1 -11.6 0.3 -22.8 0.7 -34.3 c 0.3 35.8 0.3 71.8 0.3 108.4 c -0.3 -2.7 -0.8 -6 -0.9 -9.2 c -0.2 -6.5 -0.1 -13 -0.1 -19.9 z"/><path fill="#474a4c" d="M 204.2 291.2 c 29.6 -0.2 59.3 -0.2 89.5 -0.3 c -1.4 0.3 -3.3 1 -5.2 1 c -27.2 0.1 -54.4 0 -82 0.1 c -1 -0.2 -1.6 -0.4 -2.3 -0.8 z"/><path fill="#bb8223" d="M 264.1 215.1 c -4.6 14.7 -9.2 29.4 -13.8 44.1 c -0.1 0.3 -0.5 0.4 -1.7 1.3 c -2.7 -8.8 -5.2 -17.2 -7.6 -26 c 0.6 0 1.2 0.6 1.4 0.5 c 8.5 -5.1 13.9 -12.4 16 -22.2 c 2.2 0.8 3.9 1.5 5.7 2.3 z"/><path d="M 258 212.8 c -1.7 9.9 -7.1 17.2 -15.6 22.3 c -0.2 0.1 -0.8 -0.5 -1.4 -0.9 c -0.8 -1.6 -1.4 -3 -1.7 -4.9 c 2 -2.5 3.8 -4.3 5.1 -6.5 c 2 -3.4 3.7 -7.1 5.9 -10.7 c 2.8 0.2 5.2 0.5 7.6 0.7 z" fill="#a7711f"/><path d="M 250 212.1 c -1.8 3.5 -3.5 7.2 -5.5 10.6 c -1.3 2.2 -3.1 4.1 -5 6.2 c -2 -5.4 -3.8 -10.8 -5 -16.6 c 5.5 -0.3 10.5 -0.3 15.5 -0.3 z" fill="#a46c1b"/><path d="M 250.4 212.1 c -5.4 0 -10.4 0 -15.9 0 c 0 -0.4 0.4 -1 0.9 -1 c 9.8 -0.1 19.5 0 29.4 0 c 0 1.4 0 2.6 -0.4 3.9 c -2.1 -0.5 -3.9 -1.3 -6 -2.1 c -2.8 -0.3 -5.2 -0.6 -8 -0.8 z" fill="#cac8be"/>
</svg>